<svg id="Ebene_1" data-name="Ebene 1" xmlns="http://www.w3.org/2000/svg" viewBox="0 0 283.46 283.46"><defs><style>.cls-1{fill:#f3f5fa;}.cls-2{fill:none;}.cls-3{fill:#fff;stroke-width:2px;}.cls-3,.cls-4,.cls-6{stroke:#005a96;stroke-miterlimit:10;}.cls-4{fill:#d4ddec;stroke-width:2.03px;}.cls-5{fill:#005a96;}.cls-6{fill:#e7ebf5;stroke-width:1.93px;}</style></defs><rect class="cls-1" width="283.46" height="283.46"/><rect class="cls-2" width="283.46" height="283.46"/><path class="cls-3" d="M201.8,123.14a69,69,0,0,1-.33,66.5h10.78a77.74,77.74,0,0,0,.26-66.5Z"/><path class="cls-3" d="M80.56,123.14H69.85a77.74,77.74,0,0,0,.26,66.5H80.89a69,69,0,0,1-.33-66.5Z"/><path class="cls-4" d="M74.44,271.71H244.3c7.78,0,14.08-7.4,14.08-16.53V208.41a5.75,5.75,0,0,0-5.67-5.83H33.3a5.75,5.75,0,0,0-5.67,5.83v46.83c0,9.1,6.28,16.47,14,16.47Z"/><path class="cls-5" d="M258.38,55.83c0-8.17-3.87-14.79-10.88-14.79h-155l0,0c-5.81,2.63-8.33,4.24-10.77,4.74-5.83,1.2-9.77-2.9-8.2-8.6.55-2,2.07-3.71,5-7.94a.19.19,0,0,0,0-.07V10.36A4.09,4.09,0,0,0,74.4,6.29H31.53a3.89,3.89,0,0,0-3.9,3.87l.44,94.8a5.13,5.13,0,0,0,5,5.24H252.75a5.13,5.13,0,0,0,5-5.24Z"/><circle class="cls-6" cx="141.18" cy="156.1" r="63.74"/></svg>