<svg id="Ebene_1" data-name="Ebene 1" xmlns="http://www.w3.org/2000/svg" viewBox="0 0 283.46 283.46"><defs><style>.cls-1{fill:#f3f5fa;}.cls-2{fill:#005a96;}.cls-3{fill:#d4ddec;stroke-width:2.03px;}.cls-3,.cls-5,.cls-6{stroke:#005a96;stroke-miterlimit:10;}.cls-4{fill:none;}.cls-5{fill:#fff;stroke-width:2px;}.cls-6{fill:#e7ebf5;stroke-width:1.93px;}</style></defs><rect class="cls-1" width="283.46" height="283.46"/><path class="cls-2" d="M263.07,1.59H19.76A19.76,19.76,0,0,0,0,21.35V74.48H25.81v-18c0-9.13,6.3-16.53,14.08-16.53H242.53c7.75,0,14,7.37,14,16.48V74.48h26.27V21.35A19.76,19.76,0,0,0,263.07,1.59Z"/><path class="cls-3" d="M40.44,39.91c-7.78,0-14.08,7.4-14.08,16.53v46.77c0,3.22,2.22,5.83,5,5.83H252.14c2.74,0,5-2.61,5-5.83V56.39c0-9.11-6.28-16.48-14-16.48Z"/><rect class="cls-4" width="283.46" height="283.46"/><path class="cls-3" d="M73.16,271.71H243c7.77,0,14.08-7.4,14.08-16.53V208.41a5.75,5.75,0,0,0-5.67-5.83H32a5.75,5.75,0,0,0-5.67,5.83v46.83c0,9.1,6.28,16.47,14,16.47Z"/><path class="cls-5" d="M201.8,123.14a69,69,0,0,1-.33,66.5h10.78a77.74,77.74,0,0,0,.26-66.5Z"/><path class="cls-5" d="M80.56,123.14H69.85a77.74,77.74,0,0,0,.26,66.5H80.89a69,69,0,0,1-.33-66.5Z"/><circle class="cls-6" cx="141.18" cy="156.1" r="63.74"/></svg>