<svg id="Ebene_1" data-name="Ebene 1" xmlns="http://www.w3.org/2000/svg" viewBox="0 0 283.46 283.46"><defs><style>.cls-1{fill:#f3f5fa;}.cls-2,.cls-5{fill:#fff;}.cls-3{fill:#005a96;}.cls-4{fill:#d4ddec;}.cls-5{stroke:#005a96;stroke-width:2px;}</style></defs><rect class="cls-1" width="283.46" height="283.46"/><path class="cls-2" d="M142,119.31h40.1C162.06,86.42,153.11,42.66,155.15,0h-36.1c-.15,3.93-.26,7.87-.26,11.85C118.79,52.59,127,90.72,142,119.31Z"/><path class="cls-3" d="M184.69,119.78C164.22,87,155.05,42.94,157.12,0h-2c-2,42.66,6.91,86.42,26.91,119.31H142C127,90.72,118.79,52.59,118.79,11.85c0-4,.11-7.92.26-11.85H117c-1.75,43.3,6.07,87.74,23.51,120.78l.29.53h44.89Z"/><path class="cls-3" d="M227,165.41c-.63-.64-1.28-1.26-1.91-1.91A214.76,214.76,0,0,1,163,13.74c0-1.21,0-2.43,0-3.65s0-2.64.08-4c.13-2,.28-4.1.46-6.13h1.78c-.18,3.35-.3,6.72-.32,10.11a212.82,212.82,0,0,0,61.51,152,214.28,214.28,0,0,0,57,41.52v2.24A216.3,216.3,0,0,1,229,167.41"/><polygon class="cls-4" points="29.86 0.33 29.86 118.94 61.85 118.94 61.85 89.66 106.6 143.01 106.6 153.64 76.74 153.64 76.74 184.38 108.28 194.91 103.08 214.5 71.75 214.5 51.11 240.05 30.11 240.05 48.98 206.37 48.98 162.5 13.86 146.03 13.86 0.33 29.86 0.33"/><polyline class="cls-5" points="30.11 0 30.11 117.68 60.36 117.68 60.36 0"/><path class="cls-3" d="M229.53,166.72H125.24c-7.21,0-12.78,11.37-12.78,11.37s-8.19,31.88-12.19,44.44C96,236.06,88,239,84.24,239h-66C8,239-.81,243.12-.81,254.36L0,283.46H283.46V205.09A219.31,219.31,0,0,1,229.53,166.72Z"/></svg>