<svg id="Ebene_1" data-name="Ebene 1" xmlns="http://www.w3.org/2000/svg" viewBox="0 0 283.46 283.46"><defs><style>.cls-1{fill:#f3f5fa;}.cls-2,.cls-5{fill:#fff;}.cls-3{fill:#005a96;}.cls-4{fill:#d4ddec;}.cls-5{stroke:#005a96;stroke-width:2px;}</style></defs><rect class="cls-1" width="283.46" height="283.46"/><path class="cls-2" d="M142,119.31h40.1C162.06,86.42,153.11,42.66,155.15,0h-36.1c-.15,3.93-.26,7.87-.26,11.85C118.79,52.59,127,90.72,142,119.31Z"/><path class="cls-3" d="M184.69,119.78C164.22,87,155.05,42.94,157.12,0h-2c-2,42.66,6.91,86.42,26.91,119.31H142C127,90.72,118.79,52.59,118.79,11.85c0-4,.11-7.92.26-11.85H117c-1.75,43.3,6.07,87.74,23.51,120.78l.29.53h44.89Z"/><path class="cls-3" d="M227,165.41c-.63-.64-1.28-1.26-1.91-1.91A214.76,214.76,0,0,1,163,13.74c0-1.21,0-2.43,0-3.65s0-2.64.08-4c.13-2,.28-4.1.46-6.13h1.78c-.18,3.35-.3,6.72-.32,10.11a212.82,212.82,0,0,0,61.51,152,214.28,214.28,0,0,0,57,41.52v2.24A216.3,216.3,0,0,1,229,167.41"/><path class="cls-4" d="M47.66,186.92,53,181.67H79.76l5.1,3.92,12.36,46H113c0-4.91-.21-23.58-.38-37.51h-1.42l-8.29-30.8,5.09-6.7h15.1V140.87L61.41,79.16v43.68H29.78V0H19.23V207.32H47.66Z"/><polyline class="cls-5" points="30.11 0 30.27 122.47 60.52 122.47 60.36 0"/><path class="cls-3" d="M229.53,166.72H125.24c-7.21,0-12.78,7.47-12.78,11.37s.57,46.17.57,53.74-12.27,16.45-16,16.45-38.11.34-47.62.36L30.11,216.49l-15.57-.21L0,234.77v48.69H283.46V205.09A219.31,219.31,0,0,1,229.53,166.72Z"/></svg>