<?xml version="1.0" encoding="utf-8"?>
<!-- Generator: Adobe Illustrator 25.2.0, SVG Export Plug-In . SVG Version: 6.00 Build 0)  -->
<svg version="1.1" id="Ebene_1" xmlns="http://www.w3.org/2000/svg" xmlns:xlink="http://www.w3.org/1999/xlink" x="0px" y="0px"
	 viewBox="0 0 32 32" style="enable-background:new 0 0 32 32;" xml:space="preserve">
<style type="text/css">
	.st0{fill:#005a96;}
</style>
<g id="Gruppe_172" transform="translate(30.392 30.392) rotate(180)">
	<g>
		<g id="Gruppe_22">
			<path id="Pfad_80" class="st0" d="M14.2,29.6c8.4,0,15.2-6.8,15.2-15.2S22.6-0.8,14.2-0.8S-1,6-1,14.4l0,0
				C-0.9,22.8,5.8,29.6,14.2,29.6 M14.2,0.8c7.5,0,13.7,6.1,13.7,13.7c0,7.5-6.1,13.7-13.7,13.7c-7.5,0-13.7-6.1-13.7-13.7
				C0.6,6.9,6.7,0.8,14.2,0.8"/>
			<path id="Pfad_81" class="st0" d="M11.4,19.2c0.3,0.3,0.8,0.3,1.1,0s0.3-0.8,0-1.1l0,0l-3-2.8h11.4c0.4-0.2,0.8-0.6,0.8-1
				s-0.3-0.8-0.8-1l0,0H9.5l3-2.7c0.3-0.3,0.3-0.8,0-1.1s-0.7-0.3-1,0l-4.3,4.3c-0.3,0.3-0.3,0.8,0,1.1l0,0L11.4,19.2z"/>
		</g>
	</g>
</g>
</svg>
