<svg id="Ebene_1" data-name="Ebene 1" xmlns="http://www.w3.org/2000/svg" viewBox="0 0 283.46 283.46"><defs><style>.cls-1{fill:#f3f5fa;}.cls-2{fill:none;}.cls-3{fill:#005a96;}.cls-4{fill:#d4ddec;stroke-width:2.03px;}.cls-4,.cls-5,.cls-6{stroke:#005a96;stroke-miterlimit:10;}.cls-5{fill:#e7ebf5;stroke-width:1.93px;}.cls-6{fill:#fff;stroke-width:2px;}</style></defs><rect class="cls-1" width="283.46" height="283.46"/><rect class="cls-2" width="283.46" height="283.46"/><path class="cls-3" d="M209.75,39.91V57.39H184.2V39.91H39.89c-7.78,0-14.08,7.4-14.08,16.53v46.77c0,3.22,2.22,5.83,5,5.83H251.59c2.74,0,5-2.61,5-5.83V56.39c0-9.11-6.29-16.48-14-16.48Z"/><path class="cls-4" d="M72.61,271.71H242.48c7.77,0,14.08-7.4,14.08-16.53V208.41a5.75,5.75,0,0,0-5.67-5.83H31.48a5.75,5.75,0,0,0-5.67,5.83v46.83c0,9.1,6.28,16.47,14,16.47Z"/><circle class="cls-5" cx="141.18" cy="156.1" r="63.74"/><path class="cls-6" d="M201.8,123.14a69,69,0,0,1-.33,66.5h10.78a77.74,77.74,0,0,0,.26-66.5Z"/><path class="cls-6" d="M80.56,123.14H69.85a77.74,77.74,0,0,0,.26,66.5H80.89a69,69,0,0,1-.33-66.5Z"/><rect class="cls-4" x="184.03" y="20.42" width="25.58" height="36.97"/></svg>