<svg id="Ebene_1" data-name="Ebene 1" xmlns="http://www.w3.org/2000/svg" viewBox="0 0 283.46 283.46"><defs><style>.cls-1{fill:#005a96;}.cls-2{fill:#f3f5fa;}.cls-3,.cls-5{fill:#fff;}.cls-4{fill:#d4ddec;fill-rule:evenodd;}.cls-5{stroke:#005a96;stroke-width:2px;}</style></defs><polygon class="cls-1" points="0 228.36 0.03 228.33 0 228.3 0 228.36"/><rect class="cls-2" width="283.46" height="283.46"/><path class="cls-3" d="M142,119.31h40.1C162.06,86.42,153.11,42.66,155.15,0h-36.1c-.15,3.93-.26,7.87-.26,11.85C118.79,52.59,127,90.72,142,119.31Z"/><path class="cls-1" d="M184.69,119.78C164.22,87,155.05,42.94,157.12,0h-2c-2,42.66,6.91,86.42,26.91,119.31H142C127,90.72,118.79,52.59,118.79,11.85c0-4,.11-7.92.26-11.85H117c-1.75,43.3,6.07,87.74,23.51,120.78l.29.53h44.89Z"/><path class="cls-1" d="M227,165.41c-.63-.64-1.28-1.26-1.91-1.91A214.76,214.76,0,0,1,163,13.74c0-1.21,0-2.43,0-3.65s0-2.64.08-4c.13-2,.28-4.1.46-6.13h1.78c-.18,3.35-.3,6.72-.32,10.11a212.82,212.82,0,0,0,61.51,152,214.28,214.28,0,0,0,57,41.52v2.24A216.3,216.3,0,0,1,229,167.41"/><polygon class="cls-4" points="72.85 58.81 60.33 46.39 60.33 90.21 31.65 90.21 31.65 0.33 17.31 0.33 17.31 109.36 52.12 122.07 58.28 129.36 59.35 135.61 56.09 144.68 43.89 154.86 37.73 157.1 31.65 157.1 31.65 166.72 67.3 166.72 85.29 156.36 85.29 146.73 72.85 116 72.85 58.81"/><polyline class="cls-5" points="30.11 0.33 30.11 90.63 60.36 90.63 60.36 0.33"/><path class="cls-1" d="M229.53,166.72H12.26C.46,166.72,0,179,0,179V283.46H283.46V205.09A219.31,219.31,0,0,1,229.53,166.72Z"/></svg>