<?xml version="1.0" standalone="no"?>
<!DOCTYPE svg PUBLIC "-//W3C//DTD SVG 20010904//EN"
 "http://www.w3.org/TR/2001/REC-SVG-20010904/DTD/svg10.dtd">
<svg version="1.0" xmlns="http://www.w3.org/2000/svg"
 width="941.000000pt" height="941.000000pt" viewBox="0 0 941.000000 941.000000"
 preserveAspectRatio="xMidYMid meet">
<metadata>
Created by potrace 1.14, written by Peter Selinger 2001-2017
</metadata>
<g transform="translate(0.000000,941.000000) scale(0.100000,-0.100000)"
fill="#000000" stroke="none">
<path d="M4225 9393 c-60 -7 -130 -15 -155 -18 -25 -3 -56 -7 -70 -10 -14 -3
-41 -8 -60 -11 -138 -21 -220 -40 -405 -90 -493 -135 -927 -320 -1316 -564
-90 -56 -166 -105 -169 -109 -3 -3 -25 -19 -50 -35 -37 -24 -129 -92 -224
-166 -21 -17 -143 -119 -196 -165 -114 -98 -395 -391 -500 -519 -8 -10 -27
-33 -41 -50 -14 -17 -60 -76 -101 -131 -252 -337 -450 -693 -612 -1103 -63
-159 -149 -421 -171 -518 -2 -11 -15 -68 -29 -129 -14 -60 -28 -123 -31 -140
-23 -130 -37 -214 -40 -247 -2 -21 -7 -43 -11 -49 -7 -12 -12 -50 -18 -159 -3
-41 -9 -109 -13 -150 -16 -153 -8 -690 12 -790 3 -14 7 -49 11 -78 3 -29 7
-61 9 -71 2 -10 6 -42 10 -72 3 -30 10 -79 15 -109 5 -30 12 -70 15 -87 3 -18
7 -48 10 -65 14 -81 102 -399 150 -538 14 -41 27 -79 29 -85 4 -12 7 -21 64
-165 147 -375 358 -751 616 -1100 23 -30 43 -57 46 -60 3 -3 33 -40 68 -83
102 -127 116 -142 261 -291 125 -128 243 -239 342 -320 155 -127 171 -139 243
-190 39 -27 73 -52 76 -56 9 -11 233 -155 350 -224 145 -86 464 -242 595 -291
55 -20 114 -43 130 -50 30 -13 71 -27 90 -31 6 -1 53 -16 105 -34 52 -17 102
-33 110 -35 8 -3 56 -16 105 -31 50 -14 97 -27 105 -29 8 -2 49 -12 90 -23 82
-21 219 -48 290 -58 25 -3 59 -7 75 -10 28 -3 112 -11 195 -19 19 -1 80 -6
135 -11 219 -19 745 -7 960 22 22 3 56 7 75 9 32 3 175 27 225 39 11 2 72 16
135 31 111 26 151 37 263 71 28 9 59 17 67 19 14 3 155 49 190 62 8 3 20 7 25
9 54 13 363 148 525 228 216 108 544 308 671 410 15 12 39 30 54 41 200 143
534 459 720 679 28 33 64 75 81 95 72 84 286 382 339 473 6 10 33 57 61 105
59 101 174 311 174 318 0 3 15 38 34 78 58 125 86 187 86 193 0 3 11 30 25 60
30 65 152 425 160 471 3 18 10 44 15 58 5 14 12 38 15 53 5 29 12 61 19 89 48
188 74 335 92 518 23 243 29 359 29 610 0 281 -9 415 -39 585 -3 14 -7 43 -11
65 -3 22 -10 69 -16 105 -6 36 -13 83 -16 105 -3 22 -25 117 -49 210 -55 212
-45 180 -90 315 -21 63 -39 120 -40 125 -3 11 -109 279 -123 310 -35 76 -177
362 -206 415 -102 182 -326 524 -375 570 -3 3 -27 34 -55 70 -27 36 -54 70
-60 76 -5 6 -30 35 -55 64 -124 148 -299 323 -485 486 -376 327 -842 614
-1296 795 -128 51 -488 172 -548 184 -9 2 -79 19 -156 38 -164 42 -190 47
-310 63 -27 3 -57 7 -65 9 -8 1 -40 6 -70 9 -30 4 -73 10 -95 13 -22 3 -60 7
-85 9 -25 3 -65 7 -90 10 -107 12 -737 10 -845 -3z m830 -16 c17 -3 62 -7 100
-11 39 -4 81 -8 95 -11 14 -2 49 -7 79 -10 30 -4 63 -9 75 -11 12 -2 46 -6 76
-9 30 -3 62 -7 70 -10 8 -2 33 -6 55 -10 22 -3 83 -17 135 -31 52 -14 106 -28
120 -30 27 -5 28 -5 190 -54 92 -28 158 -49 210 -68 8 -3 23 -7 32 -8 76 -15
479 -196 663 -297 254 -140 546 -335 705 -472 20 -16 50 -41 67 -55 111 -90
324 -296 455 -440 238 -263 481 -608 643 -915 32 -60 68 -128 80 -150 31 -60
107 -233 165 -380 47 -117 145 -410 155 -460 2 -11 4 -20 5 -20 1 0 3 -7 5
-15 2 -8 6 -24 9 -35 31 -128 55 -238 61 -275 4 -25 9 -58 11 -75 3 -16 7 -41
9 -55 10 -68 18 -117 21 -135 3 -11 7 -40 9 -65 3 -25 7 -54 10 -65 26 -126
27 -651 0 -915 -2 -19 -6 -64 -9 -100 -3 -36 -8 -81 -11 -100 -3 -19 -7 -57
-11 -85 -7 -61 -51 -289 -65 -331 -5 -17 -12 -42 -15 -55 -26 -124 -44 -190
-90 -334 -19 -60 -38 -117 -41 -125 -3 -8 -7 -19 -9 -25 -19 -78 -146 -368
-244 -560 -188 -366 -362 -623 -665 -975 -50 -58 -346 -352 -403 -400 -29 -25
-68 -58 -85 -73 -18 -16 -81 -66 -142 -113 -60 -46 -115 -88 -120 -92 -55 -44
-398 -262 -411 -262 -3 0 -18 -9 -33 -20 -30 -21 -289 -152 -386 -195 -218
-97 -607 -235 -734 -260 -9 -2 -61 -14 -116 -28 -115 -29 -280 -63 -345 -72
-61 -9 -120 -15 -290 -30 -216 -19 -559 -25 -708 -11 -46 4 -113 9 -149 11
-36 3 -82 7 -102 10 -20 3 -65 7 -101 10 -36 3 -76 8 -90 10 -14 2 -43 7 -65
9 -39 5 -62 10 -115 21 -14 3 -34 7 -45 9 -21 4 -208 53 -305 80 -99 27 -413
133 -520 175 -128 51 -226 96 -390 180 -69 36 -135 69 -147 75 -13 6 -23 14
-23 19 0 4 -5 7 -10 7 -14 0 -301 179 -320 200 -3 3 -18 14 -35 24 -37 24
-242 178 -270 203 -11 10 -47 40 -80 68 -119 98 -337 312 -450 439 -33 38 -65
73 -70 80 -6 6 -38 45 -70 86 -33 41 -62 77 -65 80 -16 15 -150 205 -214 303
-222 343 -393 696 -524 1082 -42 123 -89 280 -98 325 -3 14 -14 57 -24 95 -26
98 -49 221 -65 344 -4 30 -9 63 -11 75 -2 12 -6 37 -8 56 -2 19 -7 55 -10 80
-20 140 -30 303 -30 510 0 142 4 224 20 400 1 19 5 77 9 129 3 52 8 98 11 103
3 5 8 21 11 36 5 28 6 35 18 117 4 28 20 113 36 190 33 158 33 154 49 215 7
25 14 52 15 61 20 103 155 473 250 683 134 299 362 683 522 881 5 6 24 30 43
55 188 245 420 486 699 726 20 16 65 52 101 80 36 27 67 51 70 54 44 44 332
233 555 363 46 27 335 170 380 188 22 9 78 32 125 52 86 35 223 86 250 92 8 2
49 15 90 30 41 14 98 32 125 40 102 28 281 76 298 80 10 2 26 6 35 9 30 9 270
50 356 61 27 3 53 8 57 10 3 3 58 8 120 11 63 4 116 8 118 10 5 5 630 -4 666
-9z"/>
<path d="M4537 8654 c-1 -1 -38 -4 -82 -7 -85 -6 -240 -25 -265 -32 -8 -3 -37
-7 -65 -10 -27 -3 -66 -7 -85 -10 -19 -3 -51 -8 -70 -11 -56 -8 -149 -31 -235
-58 -44 -13 -109 -32 -145 -41 -36 -9 -69 -20 -75 -24 -5 -4 -17 -7 -25 -6
-40 3 -300 -100 -516 -205 -394 -191 -738 -435 -1039 -735 -251 -251 -417
-461 -593 -750 -91 -148 -82 -133 -163 -295 -142 -287 -219 -494 -303 -820
-40 -154 -45 -178 -61 -310 -9 -66 -15 -108 -25 -170 -32 -194 -35 -619 -5
-855 2 -16 7 -61 10 -98 4 -37 8 -76 10 -85 1 -9 6 -42 10 -72 4 -30 9 -64 12
-75 2 -11 6 -31 9 -45 50 -264 184 -665 308 -920 156 -321 308 -561 525 -825
134 -164 342 -374 490 -495 24 -19 53 -43 64 -54 43 -36 204 -154 287 -209 47
-31 90 -61 97 -67 7 -5 14 -10 16 -10 2 0 46 -26 98 -57 77 -46 192 -104 384
-193 60 -28 374 -150 395 -154 14 -2 90 -22 170 -45 167 -46 338 -86 420 -96
19 -3 44 -7 55 -10 22 -5 94 -13 185 -21 112 -9 677 -12 735 -4 33 5 85 12
115 15 78 8 93 11 240 40 14 3 39 7 55 10 42 6 59 10 150 35 95 26 226 61 240
65 6 1 17 5 25 8 8 4 26 8 40 11 23 3 92 30 185 71 46 20 339 137 350 140 27
6 51 20 63 37 7 10 19 18 25 18 9 0 204 112 277 159 290 188 434 304 680 551
142 142 242 256 331 375 24 33 47 62 50 65 7 6 114 165 164 245 92 146 179
320 288 580 65 154 120 294 123 311 2 18 10 52 18 76 25 77 83 305 91 363 2
11 6 36 10 55 3 19 8 46 10 60 3 14 7 35 9 47 3 12 8 53 11 90 4 37 9 77 11
87 25 134 25 740 0 873 -2 10 -7 38 -10 63 -3 25 -8 54 -10 65 -2 11 -7 40
-11 65 -10 61 -14 80 -22 115 -3 17 -7 37 -8 45 -2 14 -18 76 -64 245 -11 39
-29 106 -41 150 -45 171 -204 532 -330 751 -93 162 -216 348 -310 468 -121
155 -404 453 -529 556 -29 25 -65 55 -80 68 -214 187 -688 469 -1012 602 -119
49 -329 118 -414 135 -5 2 -41 12 -80 23 -71 21 -223 61 -260 68 -11 2 -33 6
-48 10 -16 3 -47 8 -70 10 -23 2 -51 5 -63 8 -11 2 -56 7 -99 11 -43 3 -82 8
-85 10 -17 11 -530 28 -543 19z m493 -38 c36 -6 90 -12 175 -21 91 -10 183
-23 215 -30 3 -1 19 -4 35 -8 17 -4 39 -9 50 -12 21 -5 163 -43 252 -68 28 -8
54 -12 57 -9 3 3 6 1 6 -4 0 -5 -34 -24 -75 -43 -67 -30 -143 -79 -183 -118
-10 -9 -19 -10 -33 -3 -38 21 -88 15 -117 -13 -32 -31 -50 -31 -239 4 -140 25
-255 33 -448 33 -140 -1 -353 -12 -365 -19 -3 -2 -37 -6 -75 -10 -39 -3 -77
-8 -85 -10 -8 -2 -35 -7 -60 -10 -72 -10 -104 -16 -109 -20 -2 -3 -19 9 -38
25 -35 31 -64 37 -107 21 -21 -9 -32 -4 -75 30 -27 22 -90 59 -140 82 l-90 43
147 43 c81 23 158 44 172 46 112 21 141 25 185 30 28 3 61 8 75 11 14 2 45 7
70 9 25 3 56 8 70 10 14 2 57 7 95 11 39 3 71 8 73 9 6 6 526 -3 562 -9z
m-1355 -231 c50 -24 103 -55 120 -68 l30 -25 -105 -32 c-345 -104 -557 -191
-807 -332 -56 -32 -105 -58 -109 -58 -16 0 11 113 50 209 l43 106 89 46 c114
58 304 139 417 177 115 39 155 35 272 -23z m2289 34 c105 -31 285 -103 421
-170 118 -57 120 -59 152 -116 33 -62 70 -173 77 -236 5 -37 4 -38 -17 -24
-39 25 -179 99 -290 154 -149 74 -248 113 -417 168 -80 26 -152 50 -160 53 -8
3 -20 6 -27 8 -7 1 -35 10 -63 19 -49 16 -51 18 -33 34 54 50 219 130 267 131
10 0 51 -9 90 -21z m-914 -133 c76 -15 208 -36 260 -42 30 -3 57 -7 59 -9 2
-2 1 -15 -3 -28 l-6 -24 -72 13 c-40 7 -86 15 -103 17 -222 36 -640 42 -870
12 -16 -2 -52 -7 -80 -10 -27 -4 -66 -9 -85 -12 -70 -12 -114 -9 -118 8 -4 19
16 28 77 35 26 3 53 7 61 9 8 2 35 7 60 10 25 3 63 7 85 10 22 3 67 8 100 11
33 3 61 7 63 9 6 6 537 -3 572 -9z m-1068 -27 c9 -11 38 -86 63 -167 25 -81
49 -156 54 -167 16 -42 13 -110 -6 -127 -10 -9 -79 -35 -153 -58 -74 -23 -178
-55 -230 -72 -98 -30 -111 -35 -245 -88 -100 -40 -412 -200 -480 -247 -49 -33
-80 -10 -140 102 -21 39 -61 110 -88 160 -61 110 -69 153 -36 184 36 33 285
175 415 237 63 30 117 54 119 54 3 0 28 11 57 24 87 39 409 144 563 184 51 13
85 7 107 -19z m1545 20 c147 -35 474 -143 611 -201 122 -52 354 -171 469 -240
122 -75 123 -82 45 -224 -33 -60 -76 -140 -97 -179 -21 -38 -43 -76 -48 -83
-30 -38 -41 -35 -264 79 -374 190 -473 230 -823 330 -57 17 -110 35 -117 41
-18 14 -16 54 4 119 9 30 17 59 18 64 24 115 82 272 108 290 26 18 33 18 94 4z
m-662 -63 c175 -8 229 -13 300 -25 154 -26 178 -31 181 -34 2 -2 -5 -33 -15
-68 -11 -35 -25 -84 -33 -109 -14 -48 -16 -49 -88 -37 -19 3 -64 9 -100 12
-36 4 -76 8 -90 11 -45 7 -225 18 -295 18 -177 -1 -491 -26 -558 -45 -18 -5
-35 -9 -39 -9 -9 0 -78 221 -73 231 4 5 66 15 155 24 14 2 43 6 65 9 72 10
119 15 215 21 52 4 96 8 97 9 3 2 121 -1 278 -8z m-2016 -82 c-7 -16 -20 -47
-29 -69 -24 -54 -38 -110 -44 -170 -4 -32 -11 -54 -22 -60 -51 -30 -78 -63
-79 -99 -2 -37 -1 -36 -94 -103 -185 -133 -502 -425 -617 -567 -21 -27 -44
-54 -50 -60 -11 -12 -173 -225 -189 -249 -5 -9 -27 -18 -48 -20 -41 -5 -71
-27 -92 -68 -12 -22 -21 -26 -65 -28 -56 -2 -178 -39 -234 -70 -20 -12 -36
-18 -36 -15 0 36 267 450 377 584 313 384 629 666 1023 910 47 29 94 56 105
61 11 5 38 19 60 33 22 13 41 22 43 21 1 -1 -3 -15 -9 -31z m3858 -60 c164
-96 369 -232 398 -264 10 -11 22 -20 27 -20 4 0 16 -8 26 -17 10 -10 38 -34
62 -53 127 -101 368 -342 489 -490 30 -36 57 -67 60 -70 48 -38 401 -583 387
-597 -2 -2 -28 7 -57 21 -73 33 -154 56 -203 56 -48 0 -54 3 -86 52 -25 38
-73 63 -101 54 -9 -3 -32 21 -64 66 -221 315 -589 679 -862 854 -49 31 -53 36
-53 73 0 31 -6 46 -27 66 -16 14 -36 28 -45 31 -13 4 -18 16 -19 42 -1 68 -34
185 -70 250 -10 17 -17 32 -14 32 2 0 71 -39 152 -86z m-1742 -127 c11 -3 52
-8 90 -11 39 -4 81 -9 95 -11 14 -2 46 -6 72 -10 26 -3 50 -10 53 -15 6 -10
-23 -42 -33 -36 -4 2 -34 7 -67 10 -33 4 -73 9 -90 11 -176 24 -666 25 -785 0
-152 -31 -165 -31 -168 -1 -2 24 15 32 98 42 14 2 43 5 65 8 22 3 85 8 140 12
55 4 102 8 103 9 6 5 405 -3 427 -8z m-78 -71 c71 -4 139 -8 149 -10 10 -2 53
-7 94 -11 41 -5 84 -9 95 -11 11 -1 23 -3 27 -3 4 -1 13 -13 20 -28 7 -16 30
-36 50 -45 38 -18 41 -26 64 -123 3 -16 24 -65 45 -107 l38 -77 -27 9 c-29 9
-199 47 -247 55 -16 3 -46 8 -65 11 -19 3 -46 7 -60 9 -78 13 -187 19 -365 19
-208 1 -268 -3 -435 -29 -46 -7 -202 -41 -267 -58 -29 -8 -53 -11 -53 -7 0 4
16 41 36 81 20 40 41 99 48 131 11 52 16 62 45 75 17 9 39 29 47 44 8 16 24
31 37 34 45 10 172 33 187 34 52 2 185 12 186 14 4 4 212 0 351 -7z m866 -243
c92 -35 258 -111 382 -175 71 -37 151 -78 178 -90 26 -13 47 -26 47 -30 0 -29
-224 -118 -279 -111 -19 3 -77 26 -130 52 -53 26 -127 60 -166 75 -38 16 -77
31 -85 35 -8 4 -56 20 -106 36 l-91 28 -42 81 c-36 71 -71 168 -71 202 0 11
256 -62 363 -103z m-1747 35 c-8 -29 -33 -89 -54 -133 l-39 -80 -129 -44
c-138 -47 -209 -77 -344 -145 -95 -48 -113 -49 -218 -17 -68 21 -172 75 -172
89 0 5 19 18 43 30 23 12 96 50 162 85 152 80 303 141 525 211 96 30 186 59
200 64 37 15 44 0 26 -60z m-1306 -18 c9 -16 6 -22 -17 -37 -16 -10 -30 -20
-33 -23 -3 -3 -27 -21 -55 -40 -27 -19 -59 -42 -70 -51 -11 -9 -60 -50 -110
-91 -129 -107 -296 -274 -410 -412 -22 -27 -50 -60 -63 -75 -12 -14 -53 -70
-90 -123 -37 -54 -72 -98 -78 -98 -6 0 -17 7 -24 15 -9 11 -3 27 36 82 165
233 399 486 624 674 79 66 260 199 270 199 5 0 14 -9 20 -20z m4099 -24 c69
-46 214 -161 291 -231 76 -68 273 -268 320 -324 25 -30 50 -59 56 -66 6 -6 55
-69 108 -139 79 -103 95 -130 85 -142 -21 -25 -34 -15 -89 64 -30 42 -56 79
-60 82 -3 3 -21 25 -40 50 -19 25 -39 50 -45 56 -5 6 -32 37 -60 69 -53 63
-249 260 -306 310 -86 75 -150 126 -229 184 -47 34 -94 68 -105 76 -10 8 -23
15 -27 15 -5 0 -4 9 2 20 6 11 16 20 22 20 5 0 40 -20 77 -44z m-8 -88 c55
-40 112 -82 125 -95 14 -13 27 -23 30 -23 23 0 354 -328 447 -444 18 -22 46
-55 63 -75 38 -45 133 -178 140 -196 4 -9 -28 -32 -94 -69 -55 -31 -102 -56
-104 -56 -2 0 -26 30 -53 68 -27 37 -52 69 -55 72 -3 3 -21 25 -40 50 -96 125
-333 361 -480 479 -63 51 -123 99 -133 107 -9 8 -21 14 -26 14 -4 0 -16 9 -25
19 -16 18 -16 21 0 53 29 57 95 168 100 168 2 0 49 -32 105 -72z m-4008 -40
l55 -102 -77 -54 c-238 -170 -556 -492 -701 -707 -19 -27 -38 -53 -43 -56 -10
-7 -200 94 -204 108 -5 13 116 181 205 288 70 84 329 348 397 405 17 14 68 54
115 90 47 36 89 69 95 73 42 33 81 57 91 57 7 0 37 -46 67 -102z m2131 37 c54
-3 106 -8 115 -10 9 -1 39 -6 66 -9 60 -8 164 -29 300 -61 85 -19 298 -88 380
-122 56 -24 275 -126 302 -141 39 -22 322 -218 405 -280 98 -74 287 -253 366
-347 23 -27 48 -57 55 -65 40 -46 187 -253 187 -263 0 -5 81 -132 98 -152 4
-5 18 -35 31 -65 13 -30 27 -59 31 -65 25 -32 181 -440 194 -509 2 -11 16 -77
29 -146 14 -69 29 -145 32 -170 4 -25 9 -54 11 -65 26 -125 25 -583 -1 -705
-3 -14 -10 -53 -15 -87 -33 -204 -92 -437 -145 -568 -31 -78 -124 -285 -159
-352 -15 -32 -256 -385 -274 -402 -7 -8 -21 -25 -30 -39 -40 -61 -255 -284
-340 -352 -24 -19 -56 -45 -70 -58 -48 -40 -215 -157 -297 -207 -44 -27 -87
-54 -95 -61 -8 -6 -33 -17 -55 -24 -22 -7 -70 -30 -107 -51 -37 -20 -77 -40
-90 -44 -13 -4 -27 -11 -33 -15 -5 -4 -84 -33 -175 -64 -213 -74 -220 -76
-220 -71 0 3 -10 1 -23 -4 -13 -5 -48 -12 -78 -16 -30 -3 -61 -8 -69 -10 -8
-2 -35 -7 -60 -10 -25 -3 -85 -13 -133 -21 -48 -8 -92 -12 -97 -9 -5 3 -11 1
-14 -4 -6 -9 -455 -7 -521 3 -22 3 -71 11 -110 16 -38 6 -124 22 -190 36 -66
15 -127 28 -135 29 -8 2 -16 4 -17 4 -2 1 -6 2 -10 3 -70 16 -232 78 -405 156
-86 38 -165 73 -177 77 -37 12 -259 152 -359 227 -170 128 -325 269 -413 378
-19 24 -43 52 -54 64 -68 72 -310 434 -355 531 -98 213 -100 216 -138 320 -46
124 -77 230 -108 370 -6 30 -42 234 -48 277 -29 201 -26 542 8 738 56 331 120
536 257 827 22 45 39 85 39 89 0 11 115 198 174 283 124 178 294 370 462 521
123 111 434 317 606 402 76 37 140 68 143 68 3 0 24 8 48 19 75 33 150 59 262
91 61 17 124 35 140 40 29 9 254 53 325 65 19 3 87 8 150 11 63 3 116 7 118 8
4 4 183 -1 286 -9z m1704 -198 c269 -198 507 -434 701 -696 43 -58 51 -75 40
-82 -18 -11 -39 -12 -39 -1 0 5 -8 17 -18 28 -10 10 -29 35 -42 54 -24 34 -35
48 -72 91 -9 11 -31 39 -49 62 -91 114 -326 330 -508 467 -85 64 -101 81 -90
101 5 10 12 19 14 19 3 0 31 -19 63 -43z m-3764 -15 c-12 -9 -75 -58 -140
-109 -207 -159 -449 -411 -584 -607 -46 -67 -54 -73 -79 -57 -23 15 69 143
238 330 156 174 311 316 475 434 73 52 81 56 95 42 15 -15 14 -18 -5 -33z
m210 -27 c32 -24 136 -71 173 -79 10 -1 28 -7 41 -12 21 -9 19 -12 -35 -44
-32 -19 -60 -37 -63 -40 -3 -3 -54 -38 -115 -79 -332 -225 -584 -494 -813
-870 -18 -29 -35 -51 -37 -49 -2 2 -6 16 -9 31 -9 51 -47 139 -81 192 -39 58
-43 80 -18 94 16 8 16 13 5 45 -10 27 -10 41 -2 56 12 23 130 180 165 220 191
217 335 352 548 510 55 41 61 43 89 32 24 -9 37 -8 62 3 44 19 53 18 90 -10z
m3373 15 c20 -7 38 -7 55 -1 21 8 31 5 54 -14 16 -13 67 -53 114 -90 257 -203
403 -347 558 -550 12 -17 38 -51 57 -76 32 -42 35 -49 24 -73 -10 -21 -9 -34
4 -67 16 -40 11 -71 -12 -89 -24 -18 -75 -142 -87 -208 -5 -27 -11 -21 -59 56
-55 88 -169 254 -187 274 -7 7 -31 36 -53 63 -158 200 -331 351 -648 565 -75
51 -135 95 -133 97 3 3 41 17 85 33 45 15 103 42 129 59 53 34 57 35 99 21z
m-4707 -610 c3 -4 50 -31 105 -61 55 -29 123 -66 150 -82 28 -15 58 -30 67
-33 9 -3 21 -18 28 -33 10 -25 6 -37 -31 -107 -150 -283 -247 -491 -304 -653
-28 -79 -99 -317 -111 -371 0 -3 -6 -17 -12 -32 -15 -36 -31 -36 -168 1 -267
72 -308 88 -321 126 -9 27 -7 40 33 180 87 301 128 417 220 613 24 51 44 94
44 96 0 6 129 235 167 298 22 36 45 60 62 66 26 9 61 5 71 -8z m6042 3 c50
-57 220 -370 290 -533 45 -105 139 -354 137 -363 0 -1 2 -9 5 -17 11 -29 58
-216 69 -272 13 -67 5 -81 -62 -110 -58 -25 -342 -98 -380 -98 -39 0 -40 2
-107 213 -127 395 -195 557 -338 812 -38 66 -68 130 -68 143 -1 31 9 37 203
139 19 10 36 20 39 23 3 3 37 22 75 42 78 41 114 47 137 21z m-6222 -88 c0 -3
-6 -16 -14 -28 -38 -58 -216 -406 -216 -421 0 -2 -8 -21 -17 -42 -9 -22 -18
-43 -19 -49 -2 -5 -15 -41 -29 -80 -28 -72 -85 -248 -89 -275 -5 -28 -37 -130
-41 -130 -8 0 -82 116 -102 161 -12 25 -29 68 -38 96 -16 50 -16 53 8 125 14
40 29 84 35 98 6 14 20 50 32 80 26 67 29 74 78 180 21 47 49 108 62 136 22
47 28 52 104 86 123 54 135 58 219 66 15 1 27 0 27 -3z m6428 -11 c35 -9 96
-33 135 -53 63 -31 75 -42 97 -86 30 -60 104 -218 106 -225 0 -3 5 -16 11 -30
6 -14 22 -52 36 -85 87 -208 89 -258 16 -394 -45 -82 -89 -142 -100 -135 -6 3
-8 12 -5 19 2 7 1 16 -4 21 -4 5 -11 27 -14 49 -11 82 -117 377 -198 555 -54
118 -175 347 -188 355 -19 12 -10 25 17 25 15 0 56 -7 91 -16z m-5837 -339
c56 -120 60 -175 16 -266 -31 -67 -54 -118 -92 -204 -27 -60 -85 -224 -85
-239 0 -8 -5 -18 -10 -21 -6 -4 -8 -10 -5 -15 13 -21 -160 -97 -261 -114 l-32
-6 9 43 c20 90 93 308 144 427 50 118 201 427 234 479 l15 23 19 -23 c11 -13
33 -51 48 -84z m5247 18 c81 -144 157 -309 210 -458 65 -181 140 -418 135
-427 -6 -12 -103 21 -193 65 -84 42 -85 42 -104 97 -37 112 -118 312 -165 411
-54 113 -56 130 -22 239 15 48 76 160 88 160 1 0 24 -39 51 -87z m-6394 -525
c30 -69 82 -155 114 -187 7 -7 10 -21 7 -30 -22 -52 -10 -108 30 -141 15 -13
15 -57 -1 -134 -12 -55 -35 -219 -41 -286 -13 -145 -6 -526 11 -616 2 -11 7
-50 10 -86 4 -37 9 -77 11 -89 3 -13 7 -41 10 -64 3 -22 8 -53 11 -68 5 -22 0
-34 -21 -55 -24 -24 -27 -32 -22 -82 4 -52 2 -58 -33 -105 -41 -53 -94 -154
-105 -198 -4 -15 -11 -29 -15 -32 -6 -4 -24 46 -35 101 -2 6 -10 36 -18 65
-17 58 -52 212 -61 269 -3 19 -8 46 -10 60 -5 28 -14 105 -22 192 -3 31 -7 65
-9 75 -23 122 -24 622 -1 763 26 158 33 205 41 275 12 111 100 464 112 451 3
-3 20 -38 37 -78z m7505 -80 c44 -164 49 -184 57 -233 3 -16 7 -39 9 -50 6
-32 15 -88 20 -120 2 -16 6 -48 10 -70 33 -222 38 -630 11 -870 -4 -38 -19
-167 -21 -180 -3 -25 -22 -136 -30 -175 -2 -14 -6 -36 -9 -50 -7 -45 -78 -325
-86 -339 -5 -10 -11 -2 -20 25 -17 55 -76 161 -116 210 -31 38 -32 44 -23 78
12 44 -1 93 -31 119 -15 13 -18 22 -11 40 5 13 12 41 15 63 9 60 18 117 22
137 12 65 19 224 18 422 0 309 -4 371 -25 500 -27 161 -33 225 -20 225 19 0
39 53 34 90 -3 19 -5 40 -5 45 -1 6 24 49 54 97 30 47 65 111 78 142 12 31 24
55 25 54 1 -2 21 -73 44 -160z m-6554 -225 c-38 -182 -76 -381 -80 -428 -3
-33 -8 -78 -10 -100 -10 -92 -4 -406 9 -489 3 -17 8 -56 11 -86 3 -30 8 -62
10 -70 2 -8 7 -35 10 -60 4 -25 11 -65 17 -90 5 -25 11 -52 13 -60 2 -8 8 -35
14 -60 15 -64 15 -63 -26 -41 -85 45 -183 81 -220 81 -18 0 -28 9 -39 35 -12
30 -28 43 -71 60 -2 1 -19 102 -29 170 -25 175 -25 656 0 791 2 10 7 46 11 80
7 68 10 73 47 96 14 10 31 33 38 53 8 25 19 37 38 41 94 21 183 49 217 70 48
29 45 28 40 7z m5704 -64 c30 -11 64 -19 76 -19 15 0 26 -11 39 -40 10 -22 23
-40 30 -40 28 0 46 -27 51 -75 10 -103 17 -161 21 -185 28 -153 10 -721 -26
-820 -1 -3 -1 -16 -1 -30 2 -20 -5 -28 -28 -37 -20 -7 -36 -24 -48 -50 -10
-21 -18 -39 -18 -40 0 -1 -20 -4 -44 -8 -48 -7 -115 -32 -191 -70 -53 -27 -51
-29 -36 33 9 33 44 207 50 242 3 19 10 62 16 95 32 184 32 554 -1 740 -5 33
-12 73 -14 89 -2 15 -6 35 -9 45 -3 9 -8 34 -11 56 -3 22 -13 74 -23 116 l-19
76 66 -30 c36 -16 90 -38 120 -48z m607 -150 c41 -244 50 -702 18 -958 -4 -30
-28 -171 -38 -221 -3 -15 -34 -16 -48 -2 -3 4 0 36 8 72 8 36 17 88 20 115 3
28 8 66 11 85 7 51 12 763 5 775 -4 6 -7 17 -7 25 -1 17 -14 99 -21 133 -16
78 -16 101 2 114 9 7 19 11 21 9 2 -2 15 -68 29 -147z m-7031 84 c-3 -25 -8
-52 -10 -61 -3 -20 -13 -83 -20 -132 -23 -154 -33 -500 -22 -685 8 -119 17
-189 38 -294 10 -52 16 -97 14 -101 -10 -17 -41 -17 -42 0 -1 9 -6 43 -12 76
-10 57 -14 89 -25 184 -3 25 -8 65 -11 90 -14 106 -21 479 -11 565 4 27 8 61
21 152 2 17 9 58 14 90 6 32 13 75 15 95 7 63 15 77 37 71 19 -5 20 -11 14
-50z m215 -18 c8 -2 21 -4 29 -4 10 -1 12 -13 7 -53 -4 -29 -9 -73 -12 -98 -2
-25 -7 -56 -10 -68 -24 -112 -23 -613 2 -733 2 -13 6 -40 9 -59 12 -103 18
-146 21 -151 6 -10 -19 -27 -46 -33 -14 -3 -60 -16 -103 -30 -55 -17 -79 -21
-82 -13 -2 7 -9 37 -15 67 -5 30 -13 66 -15 80 -3 14 -8 45 -11 70 -3 25 -8
63 -11 85 -6 49 -11 507 -6 518 3 4 6 46 8 93 2 47 6 104 10 127 18 123 36
233 40 244 2 8 29 4 87 -14 46 -13 90 -26 98 -28z m6723 38 c3 -10 8 -34 11
-53 3 -19 8 -46 11 -60 3 -14 7 -38 9 -55 3 -16 8 -52 12 -80 8 -55 8 -578 -1
-690 -9 -125 -18 -206 -30 -255 -1 -3 -5 -24 -9 -47 l-7 -41 -72 19 c-142 39
-168 50 -163 67 11 37 35 233 41 332 9 146 9 452 1 530 -4 36 -13 101 -21 145
-28 159 -31 141 20 154 25 6 47 12 50 12 2 1 33 10 67 20 79 22 76 22 81 2z
m-6611 -83 c-1 -6 -7 -46 -13 -88 -48 -339 -42 -698 16 -1014 2 -10 -5 -18
-18 -22 -12 -3 -22 -4 -24 -3 -4 4 -22 125 -41 277 -15 119 -6 678 12 709 2 3
7 35 10 71 10 93 13 101 39 90 12 -4 21 -13 19 -20z m6354 5 c4 -29 17 -109
19 -115 1 -3 5 -36 9 -75 5 -38 10 -79 12 -90 6 -28 4 -428 -1 -500 -11 -132
-15 -171 -19 -191 -5 -27 -19 -125 -19 -142 0 -7 -9 -12 -21 -10 -23 3 -25 19
-11 118 4 30 9 66 10 80 20 146 26 528 11 640 -4 30 -9 73 -10 95 -2 22 -6 58
-9 80 -15 98 -17 117 -11 126 10 16 37 5 40 -16z m14 -1161 c8 -2 69 -19 135
-37 66 -19 132 -37 146 -41 14 -3 38 -15 53 -27 25 -20 27 -27 23 -68 -9 -80
-14 -104 -37 -176 -13 -38 -22 -70 -21 -70 3 0 -88 -264 -116 -335 -60 -155
-303 -611 -336 -632 -28 -18 -66 -3 -229 88 -166 92 -217 128 -218 150 0 5 30
66 68 135 59 109 159 308 182 364 5 11 18 43 30 70 25 57 38 96 110 325 87
281 89 283 153 268 23 -5 49 -11 57 -14z m-6298 -2 c3 -4 27 -78 52 -165 26
-87 55 -184 66 -215 11 -31 22 -64 24 -72 2 -8 15 -41 30 -73 14 -31 25 -60
25 -62 1 -12 198 -406 232 -465 46 -79 56 -115 38 -133 -50 -49 -380 -219
-414 -212 -11 2 -23 4 -27 4 -17 2 -120 179 -216 371 -86 171 -198 451 -216
540 -3 14 -23 90 -46 170 -22 80 -40 150 -40 156 0 18 33 49 65 61 17 6 64 21
105 33 91 26 94 27 100 30 3 1 41 12 85 25 73 22 119 24 137 7z m190 -113
c131 -54 152 -70 172 -136 31 -100 96 -264 153 -383 55 -116 60 -138 49 -199
-13 -65 -88 -221 -108 -221 -8 0 -229 444 -258 520 -49 124 -126 360 -136 417
-3 15 -8 31 -11 36 -10 16 60 -1 139 -34z m5917 4 c-6 -21 -14 -47 -19 -58 -9
-21 -30 -88 -34 -108 -8 -39 -70 -218 -109 -312 -48 -118 -200 -421 -221 -443
-11 -12 -19 -5 -44 40 -17 29 -31 57 -30 62 0 5 -5 12 -11 15 -19 12 -39 115
-31 157 4 21 34 95 67 164 59 124 122 286 143 367 10 39 15 43 94 82 68 33
163 67 198 70 3 1 2 -16 -3 -36z m-6584 -206 c12 -55 75 -269 96 -327 35 -92
51 -133 70 -177 11 -24 19 -45 19 -49 0 -9 134 -274 178 -352 23 -41 42 -76
42 -78 0 -6 -69 6 -135 23 -55 15 -149 59 -184 87 -16 12 -141 269 -141 289 0
7 -4 17 -9 23 -5 5 -16 29 -24 54 -9 25 -32 90 -52 145 l-36 100 22 65 c36
108 119 247 140 234 4 -2 11 -19 14 -37z m7237 -96 c54 -119 65 -176 42 -229
-18 -41 -43 -102 -99 -237 -20 -49 -43 -103 -50 -120 -8 -16 -26 -59 -40 -95
-38 -94 -46 -103 -117 -137 -85 -42 -149 -62 -216 -70 l-55 -6 20 34 c79 130
222 406 238 459 4 14 16 43 26 65 16 36 108 302 113 329 5 22 28 99 37 124
l10 26 35 -50 c20 -27 45 -69 56 -93z m-6136 -424 c42 -71 206 -307 270 -387
72 -90 282 -304 349 -355 22 -16 47 -37 56 -45 8 -8 22 -19 31 -25 8 -5 36
-26 62 -45 26 -19 101 -70 166 -112 l120 -76 -51 -11 c-63 -14 -107 -33 -177
-79 -51 -33 -53 -34 -84 -19 -28 13 -37 14 -65 2 -30 -13 -34 -12 -70 16 -21
17 -54 42 -73 57 -237 185 -418 366 -608 609 -68 88 -71 93 -58 118 12 22 12
33 -2 74 -14 47 -14 49 6 71 25 27 81 157 89 206 7 42 14 43 39 1z m4961 -8
c5 -37 40 -111 84 -183 l30 -48 -20 -38 c-20 -38 -20 -39 -1 -60 18 -21 18
-30 -2 -55 -4 -5 -40 -53 -80 -105 -93 -123 -117 -149 -273 -306 -124 -125
-248 -234 -363 -318 -48 -35 -56 -38 -85 -29 -23 7 -44 5 -74 -5 -39 -13 -45
-12 -70 6 -70 48 -206 107 -224 96 -5 -3 -9 -2 -9 3 0 4 60 47 134 95 186 122
320 230 467 377 144 144 199 212 327 401 50 74 95 140 99 145 5 6 16 23 26 38
21 33 27 31 34 -14z m155 -383 c16 -12 7 -27 -113 -176 -241 -299 -376 -432
-607 -599 -59 -42 -76 -50 -88 -40 -21 17 -18 23 33 60 44 31 123 95 233 189
138 117 318 312 433 467 45 61 84 112 87 112 3 0 13 -6 22 -13z m-5216 -83
c38 -49 73 -93 79 -99 5 -6 23 -28 39 -48 57 -73 191 -211 282 -292 102 -91
140 -123 195 -165 139 -108 140 -108 127 -129 -7 -11 -17 -16 -23 -11 -354
266 -475 381 -707 671 -104 131 -103 129 -82 145 10 8 20 15 21 15 1 0 32 -39
69 -87z m-860 59 c27 -25 171 -69 239 -74 34 -2 45 -9 73 -45 33 -43 66 -59
100 -51 13 4 32 -15 72 -76 104 -154 203 -270 380 -446 172 -171 271 -256 440
-378 60 -43 86 -68 87 -83 3 -40 23 -74 57 -97 30 -20 35 -30 41 -80 8 -70 25
-130 58 -204 14 -32 23 -58 20 -58 -4 0 -63 32 -138 74 -39 23 -276 177 -285
186 -3 3 -41 32 -85 64 -71 53 -111 85 -219 176 -121 102 -372 365 -488 511
-110 139 -234 321 -313 459 -26 47 -54 95 -62 108 -11 18 -11 22 0 22 7 0 17
-4 23 -8z m6838 -59 c-97 -177 -248 -403 -353 -529 -14 -17 -44 -52 -66 -79
-133 -163 -347 -372 -525 -514 -52 -42 -97 -78 -100 -82 -18 -20 -383 -259
-396 -259 -2 0 -28 -16 -58 -35 -30 -19 -60 -35 -65 -35 -6 0 3 30 20 67 33
73 59 169 59 219 0 23 7 34 26 45 42 22 74 67 74 103 0 28 7 38 43 61 40 27
190 139 213 160 6 6 33 28 60 49 156 126 494 498 609 671 29 45 37 50 71 51
37 1 60 19 89 69 8 12 26 19 60 22 63 5 135 25 206 57 30 14 58 25 62 25 5 1
-8 -29 -29 -66z m-542 -43 l28 -17 -71 -99 c-64 -89 -90 -122 -179 -229 -33
-39 -295 -302 -340 -340 -71 -61 -187 -152 -257 -202 l-71 -52 -39 67 c-22 37
-48 84 -58 105 -20 38 -20 38 0 52 11 8 25 18 30 22 6 4 54 41 107 80 200 149
352 307 593 618 17 21 40 51 53 66 l24 29 76 -42 c42 -23 89 -49 104 -58z
m-5522 33 c19 -27 37 -50 40 -53 3 -3 21 -25 40 -50 158 -204 320 -365 525
-522 33 -25 70 -54 82 -64 12 -11 38 -30 57 -44 42 -30 42 -30 -28 -150 l-52
-89 -80 56 c-76 54 -181 136 -254 198 -42 36 -245 239 -280 280 -14 17 -65 80
-114 140 -49 61 -101 126 -117 145 -61 76 -71 91 -65 98 13 14 181 100 197
101 8 1 31 -20 49 -46z m5601 -76 c15 -11 10 -22 -50 -103 -163 -221 -356
-433 -530 -584 -110 -94 -116 -99 -126 -107 -6 -5 -37 -29 -70 -54 -33 -25
-82 -60 -109 -79 -47 -32 -50 -32 -63 -14 -16 22 -31 7 147 141 63 48 120 92
126 97 6 6 38 35 72 64 102 90 317 310 375 387 4 5 32 42 63 80 30 39 71 96
92 127 39 61 47 65 73 45z m-5801 -94 c41 -53 80 -101 85 -107 6 -6 17 -20 25
-32 14 -20 81 -99 165 -194 64 -72 173 -176 270 -257 50 -41 101 -84 113 -95
13 -11 61 -46 107 -79 67 -47 82 -63 78 -79 -7 -27 -16 -25 -71 12 -55 37
-209 155 -232 177 -9 9 -43 39 -76 67 -117 102 -322 314 -396 410 -12 16 -25
31 -29 34 -4 3 -41 54 -83 114 -74 106 -80 126 -41 126 6 0 44 -44 85 -97z
m1660 -490 c170 -77 297 -129 350 -143 43 -12 68 -47 114 -164 35 -87 45 -141
25 -134 -8 3 -52 17 -99 32 -47 15 -92 30 -100 33 -8 3 -19 7 -25 8 -67 16
-302 101 -322 117 -7 6 -13 8 -13 4 0 -7 -239 112 -334 167 l-69 40 24 19 c65
52 209 100 274 91 17 -2 95 -34 175 -70z m2647 63 c45 -10 203 -100 192 -110
-32 -29 -338 -180 -470 -231 -52 -20 -103 -41 -114 -45 -21 -10 -228 -74 -232
-72 -1 0 -26 -8 -55 -19 -29 -10 -62 -19 -74 -19 -21 0 -21 1 -7 62 8 35 32
97 54 138 l41 76 101 34 c56 18 106 37 112 42 5 4 18 8 30 8 12 0 25 4 31 8 5
5 29 17 54 26 24 10 70 33 102 51 97 57 156 70 235 51z m-3095 -145 c204 -115
420 -215 583 -270 33 -11 141 -45 240 -76 201 -63 225 -75 225 -109 0 -28 -85
-336 -107 -388 -30 -71 -53 -75 -208 -37 -337 84 -1011 388 -1081 488 -22 31
-20 74 5 110 12 16 21 32 21 35 0 4 34 66 76 139 74 129 103 167 129 167 8 0
60 -26 117 -59z m3425 51 c23 -14 209 -354 217 -395 8 -43 -19 -64 -253 -195
-109 -61 -329 -167 -354 -171 -4 0 -20 -7 -35 -15 -25 -13 -229 -84 -262 -91
-8 -2 -26 -8 -40 -13 -14 -5 -28 -10 -32 -11 -4 -1 -22 -7 -40 -12 -18 -6 -40
-12 -48 -14 -8 -2 -34 -10 -57 -18 -22 -9 -43 -14 -45 -11 -3 2 -18 -1 -35 -6
-43 -15 -81 2 -99 45 -13 31 -80 245 -89 285 -2 8 -9 31 -14 50 -24 76 -10
105 59 127 109 35 303 95 318 98 20 4 104 34 227 82 126 50 350 162 455 228
68 43 102 53 127 37z m-2456 -158 c41 -8 85 -18 99 -20 14 -3 43 -9 65 -14 22
-5 63 -12 91 -15 28 -3 61 -8 75 -10 117 -23 527 -24 634 -1 24 5 86 14 140
22 74 10 219 35 288 50 15 3 27 3 27 0 0 -3 -15 -36 -34 -73 -18 -37 -39 -97
-46 -133 -11 -62 -14 -66 -51 -83 -24 -12 -41 -28 -45 -42 -5 -22 -28 -33 -84
-40 -8 -1 -35 -5 -59 -9 -100 -16 -286 -29 -436 -29 -116 0 -344 11 -355 18
-3 2 -35 6 -70 10 -36 3 -74 7 -85 10 -11 2 -26 4 -33 4 -7 1 -18 14 -23 30
-9 26 -29 41 -71 55 -10 3 -18 13 -18 23 0 24 -51 167 -78 220 -24 46 -27 57
-13 49 5 -3 42 -13 82 -22z m-1065 -473 c168 -84 287 -137 441 -197 146 -56
353 -124 379 -124 35 0 19 -24 -43 -64 -70 -45 -196 -96 -238 -96 -13 0 -85
25 -160 55 -144 59 -190 77 -190 75 0 -2 -194 88 -234 108 -32 16 -62 66 -101
168 -15 38 -39 162 -33 168 3 3 22 -6 43 -19 21 -13 82 -46 136 -74z m1264 84
c25 -3 59 -7 75 -10 140 -20 518 -27 675 -11 132 13 147 15 209 26 64 11 81 8
81 -15 0 -19 -29 -25 -190 -45 -47 -6 -93 -13 -104 -16 -30 -10 -453 -11 -551
-3 -102 9 -122 12 -220 29 -79 14 -88 19 -79 44 5 12 14 15 33 11 14 -3 46 -8
71 -10z m2361 -87 c-29 -111 -93 -240 -128 -255 -15 -6 -102 -41 -193 -76 -91
-36 -203 -81 -249 -101 -46 -20 -102 -38 -125 -40 -55 -4 -146 30 -242 89
l-78 49 40 17 c22 10 51 20 64 23 73 14 337 103 450 151 158 68 424 206 455
236 21 21 24 -23 6 -93z m-2356 12 c42 -9 130 -19 212 -26 131 -10 551 -2 573
11 3 2 33 7 65 10 33 4 76 10 95 14 19 4 51 7 70 7 l34 -1 33 -109 c18 -61 30
-113 26 -117 -5 -4 -30 -10 -58 -13 -27 -3 -77 -10 -110 -16 -117 -20 -183
-23 -430 -23 -231 -1 -447 7 -463 17 -4 2 -38 7 -77 10 -68 7 -143 20 -150 28
-3 2 10 54 27 116 l31 113 41 -6 c22 -4 59 -10 81 -15z m-115 -250 c25 -5 72
-11 105 -15 33 -4 74 -9 90 -12 59 -9 711 -12 770 -3 33 6 78 12 100 15 22 3
47 7 55 10 49 13 114 15 121 3 13 -19 11 -35 -3 -35 -19 0 -122 -13 -149 -18
-13 -3 -37 -7 -54 -10 -16 -3 -43 -7 -60 -10 -133 -23 -630 -23 -753 -1 -9 2
-46 7 -82 11 -75 8 -99 11 -155 20 -22 4 -46 8 -53 9 -7 1 -12 5 -12 9 0 4 0
16 0 28 0 16 4 20 18 14 9 -3 37 -10 62 -15z m10 -73 c216 -36 316 -42 620
-41 229 1 295 5 395 22 149 26 245 36 245 25 0 -5 14 -17 31 -27 23 -14 42
-17 74 -13 37 6 49 1 111 -38 76 -49 159 -91 199 -101 14 -3 25 -8 23 -9 -2
-2 -39 -13 -83 -25 -44 -12 -87 -23 -95 -25 -145 -39 -197 -52 -250 -59 -8 -1
-23 -6 -33 -10 -10 -5 -20 -6 -23 -3 -4 3 -16 2 -28 -2 -11 -5 -52 -12 -91
-16 -38 -4 -72 -8 -75 -10 -29 -18 -433 -24 -700 -12 -212 11 -274 18 -455 53
-71 14 -188 42 -260 61 -71 19 -135 36 -142 37 -30 5 -19 15 39 37 35 13 98
47 141 76 76 52 79 53 131 47 49 -6 55 -4 87 24 19 17 36 29 39 27 3 -2 48
-10 100 -18z"/>
<path d="M4690 8152 c-41 -13 -51 -61 -19 -93 33 -33 89 -4 89 48 0 25 -44 54
-70 45z"/>
<path d="M7061 7139 c-33 -36 -10 -89 40 -89 38 0 61 33 48 69 -18 46 -56 55
-88 20z"/>
<path d="M2270 7140 c-38 -38 -15 -90 40 -90 50 0 69 66 28 94 -30 21 -44 20
-68 -4z"/>
<path d="M4560 6847 c-3 -3 -39 -8 -80 -12 -41 -4 -95 -10 -120 -15 -25 -4
-52 -8 -60 -8 -12 -1 -99 -23 -175 -46 -5 -2 -23 -6 -40 -10 -16 -4 -39 -11
-50 -16 -11 -4 -65 -25 -120 -46 -55 -21 -143 -60 -195 -87 -88 -45 -292 -175
-336 -215 -11 -9 -51 -44 -89 -77 -167 -144 -313 -319 -427 -515 -57 -96 -116
-214 -136 -266 -6 -16 -24 -66 -40 -111 -30 -82 -66 -203 -76 -259 -19 -99
-26 -146 -32 -199 -3 -33 -8 -73 -10 -90 -5 -38 -5 -260 0 -300 2 -16 7 -68
11 -115 4 -47 9 -94 12 -105 2 -11 6 -29 7 -40 4 -21 15 -78 21 -105 2 -8 4
-15 5 -15 1 0 3 -9 4 -20 4 -26 69 -218 92 -270 10 -22 18 -42 19 -45 4 -21
97 -199 139 -264 114 -181 162 -242 306 -387 112 -112 184 -174 265 -229 28
-19 52 -37 55 -40 3 -4 55 -36 115 -72 205 -120 496 -232 659 -254 15 -2 35
-6 45 -8 9 -3 39 -7 66 -10 28 -3 77 -8 110 -12 155 -17 381 -8 545 21 14 3
41 7 60 10 168 27 439 124 607 216 264 145 474 319 653 539 25 30 48 57 51 60
26 24 164 251 205 340 43 90 51 111 84 200 17 47 38 101 45 120 18 49 53 213
60 285 3 33 8 71 10 85 24 154 24 436 -1 545 -2 11 -6 36 -9 55 -2 19 -7 46
-10 60 -3 14 -8 39 -11 55 -10 60 -55 203 -99 320 -66 177 -243 476 -350 591
-5 6 -39 44 -75 84 -127 143 -339 309 -525 412 -252 139 -573 239 -810 253
-185 10 -371 17 -375 12z m245 -32 c61 -3 130 -8 155 -11 69 -7 130 -15 153
-20 12 -2 34 -6 50 -9 33 -6 116 -29 177 -48 40 -13 68 -23 145 -53 11 -4 22
-8 25 -9 60 -20 247 -117 330 -171 170 -109 342 -255 449 -384 12 -14 29 -34
39 -45 128 -143 285 -416 366 -637 24 -65 63 -197 72 -241 2 -12 8 -44 14 -72
15 -78 19 -105 26 -175 3 -36 8 -74 10 -85 6 -25 5 -220 0 -260 -2 -16 -7 -59
-11 -95 -12 -109 -24 -202 -32 -235 -2 -11 -7 -33 -10 -50 -17 -98 -119 -362
-190 -495 -107 -201 -206 -333 -378 -505 -200 -201 -446 -361 -717 -468 -282
-110 -483 -146 -798 -142 -113 2 -221 6 -240 9 -19 4 -80 14 -135 22 -241 38
-523 155 -771 319 -62 41 -118 80 -125 87 -8 7 -35 30 -61 50 -65 53 -204 191
-263 263 -28 33 -53 62 -56 65 -3 3 -38 54 -78 114 -69 104 -175 302 -205 383
-8 21 -24 65 -36 98 -24 65 -57 175 -65 215 -3 14 -7 36 -10 50 -44 212 -52
536 -20 740 5 31 33 178 39 205 25 109 98 301 166 436 125 251 316 493 525
665 33 27 66 54 73 61 7 7 26 20 42 30 17 9 30 21 30 25 0 4 4 8 9 8 4 0 39
21 77 46 146 97 487 242 630 268 16 2 40 8 54 11 48 11 136 25 200 31 36 4 85
10 110 14 25 4 63 6 85 4 22 -2 90 -6 150 -9z"/>
<path d="M1289 4744 c-19 -23 -20 -46 -3 -71 27 -43 94 -20 94 32 0 48 -62 74
-91 39z"/>
<path d="M8049 4744 c-45 -55 17 -123 74 -80 21 16 22 59 1 80 -20 21 -58 20
-75 0z"/>
<path d="M7075 2368 c-27 -15 -34 -27 -29 -52 13 -70 107 -61 107 10 0 41 -41
63 -78 42z"/>
<path d="M2290 2367 c-18 -9 -26 -22 -28 -46 -4 -42 20 -62 61 -50 36 10 34 8
42 41 5 19 1 32 -14 47 -24 24 -28 25 -61 8z"/>
<path d="M4683 1378 c-39 -19 -39 -81 1 -95 34 -11 41 -11 57 1 28 20 30 56 4
82 -27 27 -30 27 -62 12z"/>
</g>
</svg>
