<svg xmlns="http://www.w3.org/2000/svg" xmlns:xlink="http://www.w3.org/1999/xlink" width="37.077" height="37.077" viewBox="0 0 37.077 37.077">
  <defs>
    <clipPath id="clip-path">
      <rect id="Rectangle_25" data-name="Rectangle 25" width="37.077" height="37.077" fill="#fff"/>
    </clipPath>
  </defs>
  <g id="Component_3_1" data-name="Component 3 – 1" transform="translate(0 0)">
    <g id="Group_172" data-name="Group 172" transform="translate(37.077 37.076) rotate(180)">
      <g id="Group_22" data-name="Group 22" clip-path="url(#clip-path)">
        <path id="Path_80" data-name="Path 80" d="M18.512,37.024A18.512,18.512,0,1,0,0,18.512,18.533,18.533,0,0,0,18.512,37.024m0-35.174A16.662,16.662,0,1,1,1.85,18.512,16.681,16.681,0,0,1,18.512,1.85" transform="translate(0.052)" fill="#fff"/>
        <path id="Path_81" data-name="Path 81" d="M5.466,11.989A.926.926,0,0,0,6.78,10.683L3.156,7.059H17A.929.929,0,1,0,17,5.2H3.156L6.78,1.578A.924.924,0,0,0,5.474.272l-5.2,5.2a.92.92,0,0,0,0,1.306Z" transform="translate(9.603 12.382)" fill="#fff"/>
      </g>
    </g>
  </g>
</svg>
