<svg xmlns="http://www.w3.org/2000/svg" xmlns:xlink="http://www.w3.org/1999/xlink" width="62" height="42.652" viewBox="0 0 62 42.652">
  <defs>
    <clipPath id="clip-path">
      <rect id="Rectangle_59" data-name="Rectangle 59" width="62" height="42.652" fill="#005a96"/>
    </clipPath>
  </defs>
  <g id="Group_189" data-name="Group 189" transform="translate(1 103)">
    <g id="Group_188" data-name="Group 188" transform="translate(-1 -103)" clip-path="url(#clip-path)">
      <path id="Path_107" data-name="Path 107" d="M48.437,37.838H13.586c0,.578,0,1.145,0,1.712a2.924,2.924,0,0,1-3.077,3.093q-3.735.016-7.469,0A2.886,2.886,0,0,1,.027,39.633C.018,34.167-.04,28.7.05,23.237a9.283,9.283,0,0,1,3.582-7.2c1.081-.893,2.186-1.756,3.414-2.74-.716-.156-1.284-.282-1.854-.4-.473-.1-.951-.18-1.421-.291a.986.986,0,0,1-.839-1.032c-.006-.922-.018-1.845,0-2.767A.961.961,0,0,1,3.988,7.777q2.316-.026,4.633,0a.987.987,0,0,1,1.086,1.07c.018.427,0,.855,0,1.283l.195.074c.426-.692.9-1.359,1.267-2.083.612-1.213,1.138-2.47,1.726-3.7A7.158,7.158,0,0,1,19.692.032q11.272-.071,22.545,0a7.25,7.25,0,0,1,6.939,4.5c.8,1.684,1.657,3.34,2.5,5a1.509,1.509,0,0,0,.633.613c0-.4-.007-.8,0-1.2.017-.791.359-1.159,1.129-1.166q2.247-.02,4.5,0a1.01,1.01,0,0,1,1.151,1.144c.013.853,0,1.707,0,2.56a1.054,1.054,0,0,1-.953,1.154c-1.007.2-2.011.415-3.177.657l3.181,2.549a9.737,9.737,0,0,1,3.849,7.915c.015,5.211.006,10.423,0,15.635a2.95,2.95,0,0,1-3.256,3.254q-3.562,0-7.123,0a2.933,2.933,0,0,1-3.178-3.194c0-.525,0-1.049,0-1.609m-46.474-9.7c0,1.626-.013,3.19,0,4.753A2.891,2.891,0,0,0,4.95,35.853c1.291.013,2.582.01,3.872.005a8.176,8.176,0,0,0,2.872-.1c.809-.327,1.381-1.248,2.05-1.914a6.127,6.127,0,0,1,4.474-1.854q12.481-.009,24.963-.007a6.321,6.321,0,0,1,4.761,2.006c.51.532,1.029,1.059,1.577,1.551a1.2,1.2,0,0,0,.715.3c2.3.023,4.61.033,6.915.01a2.873,2.873,0,0,0,2.9-2.907c.024-1.475.007-2.951,0-4.427a1.938,1.938,0,0,0-.065-.362h-.9c0,.313,0,.586,0,.858a3.873,3.873,0,0,1-3.952,3.941q-1.314.016-2.628,0c-.725-.008-1.174-.4-1.161-.991.012-.562.447-.936,1.136-.948.783-.013,1.567-.006,2.351-.007,1.771,0,2.622-1.1,2.211-2.859A5.621,5.621,0,0,0,52.5,29.26a.893.893,0,0,1-1.346-.159.925.925,0,0,1,.166-1.355,6.022,6.022,0,0,1,3.9-1.562c1.244-.038,2.489-.011,3.734-.013h1.016V22.519a13.423,13.423,0,0,1-2.783.717c-2.485.1-4.978.059-7.466.014a2.464,2.464,0,0,1-1.213-.5,9.5,9.5,0,0,1-1.122-1.067c-.21.268-.371.464-.523.668a2.454,2.454,0,0,1-2.228.942c-3.226-.051-6.454-.033-9.68,0a1.8,1.8,0,0,0-1.069.443c-.725.638-1.373,1.364-2.073,2.033a.976.976,0,0,1-1.616-.012c-.7-.67-1.349-1.393-2.077-2.029a1.8,1.8,0,0,0-1.069-.435c-3.411-.032-6.823,0-10.234-.041a2.236,2.236,0,0,1-1.213-.493,7.857,7.857,0,0,1-1.044-1.218l-.7.9a2.216,2.216,0,0,1-1.988.855c-1.865-.059-3.733-.02-5.6-.015-1.447,0-2.918.124-4.222-1.125v4.024c1.567,0,3.13-.024,4.692.007A5.991,5.991,0,0,1,10.65,27.7a.965.965,0,0,1,.212,1.406.954.954,0,0,1-1.463.064c-1.327-1.14-2.882-1.153-4.482-1.014-.2,2.05.508,2.856,2.47,2.857.691,0,1.383,0,2.074,0,.745.005,1.2.36,1.21.941.014.6-.454.994-1.228,1-.876.007-1.752.011-2.628,0A3.868,3.868,0,0,1,2.93,29.089c-.008-.313,0-.626,0-.955ZM31,23.9c.7-.72,1.3-1.317,1.876-1.946a1.877,1.877,0,0,1,1.523-.637q5.048.038,10.1-.008a1.524,1.524,0,0,0,1.062-.443A11.509,11.509,0,0,1,51.275,17.2c.416-.135.82-.306,1.226-.47.764-.309,1.525-.626,2.338-.96-.143-.155-.23-.257-.325-.351-1.156-1.152-2.3-2.312-3.481-3.442a1.217,1.217,0,0,0-.765-.317q-19.259-.023-38.517,0a1.379,1.379,0,0,0-.852.414c-.864.861-1.673,1.776-2.529,2.644-.35.355-.768.641-1.245,1.033,1.281.513,2.433,1.041,3.628,1.438a11.754,11.754,0,0,1,5.715,3.677,1.532,1.532,0,0,0,1.063.439c3.411.033,6.823,0,10.234.041a2.045,2.045,0,0,1,1.215.486c.69.6,1.291,1.306,2.02,2.064M12.608,9.649H49.4C48.635,8,47.96,6.387,47.15,4.84a5.006,5.006,0,0,0-4.579-2.857q-11.548-.075-23.1-.006A4.912,4.912,0,0,0,15.1,4.47c-.956,1.639-1.66,3.425-2.49,5.179m1.977,26.169h32.37a4.246,4.246,0,0,0-3.424-1.878q-12.753-.038-25.506,0a4.242,4.242,0,0,0-3.44,1.876M1.975,36.824c0,1.082-.035,2.022.012,2.958A.921.921,0,0,0,3,40.7q3.8.012,7.6,0a.935.935,0,0,0,1.019-.917c.049-.635.011-1.275.011-1.977-2.039,0-4.014-.028-5.988.01a5.769,5.769,0,0,1-3.67-.986M50.38,37.8c0,.7-.019,1.295.005,1.89a.941.941,0,0,0,1,1c2.556.016,5.111.012,7.667,0a.88.88,0,0,0,.963-.813c.061-.97.018-1.947.018-3.052a6.084,6.084,0,0,1-3.99.978c-1.86-.035-3.721-.009-5.667-.009M13.141,20.3c-.234-.11-.413-.2-.6-.279Q9.752,18.905,6.961,17.8c-1.8-.715-2.082-.634-3.281.938-.112.146-.216.3-.315.454A1.224,1.224,0,0,0,3.913,21.1a3.209,3.209,0,0,0,1.205.218c2.049.021,4.1-.038,6.147.032A1.975,1.975,0,0,0,13.141,20.3m35.71-.019a2,2,0,0,0,1.8,1.074c2.092-.072,4.188-.015,6.282-.031a3.171,3.171,0,0,0,1.078-.172,1.248,1.248,0,0,0,.626-1.987,7.889,7.889,0,0,0-.631-.82c-1.076-1.233-1.137-1.245-2.657-.656-.064.025-.131.043-.195.069l-6.3,2.523m5.43-8.871c.711-.134,1.367-.251,2.019-.382.969-.194,1-.259.747-1.274H54.282ZM4.72,9.739c.167.469.214,1.059.431,1.129a20.805,20.805,0,0,0,2.577.532V9.739Z" transform="translate(0 0)" fill="#005a96"/>
    </g>
  </g>
</svg>
