<svg xmlns="http://www.w3.org/2000/svg" width="15.315" height="16.87" viewBox="0 0 15.315 16.87">
  <g id="Group_739" data-name="Group 739" transform="translate(-947.75 -1391.312)">
    <path id="Path_104" data-name="Path 104" d="M4.481,9.335a.791.791,0,0,0,1.077,0,.692.692,0,0,0,0-1.017L2.587,5.5h9.028a.724.724,0,1,0,0-1.446H2.587L5.557,1.229a.692.692,0,0,0,0-1.017.783.783,0,0,0-1.071,0L.223,4.262a.692.692,0,0,0,0,1.017Z" transform="translate(951 1404.188) rotate(-90)" fill="#ed1c24" stroke="rgba(0,0,0,0)" stroke-width="1"/>
    <path id="Path_388" data-name="Path 388" d="M275.792,8.887V13.7h13.815V8.887" transform="translate(672.709 1393.728)" fill="none" stroke="#ed1c24" stroke-linecap="round" stroke-linejoin="round" stroke-width="1.5"/>
  </g>
</svg>
