<svg xmlns="http://www.w3.org/2000/svg" width="15.315" height="15.87" viewBox="0 0 15.315 15.87">
  <g id="Upload" transform="translate(0.75 0.5)">
    <path id="Path_388" data-name="Path 388" d="M275.792,8.887V13.7h13.815V8.887" transform="translate(-275.792 0.916)" fill="none" stroke="#ed1c24" stroke-linecap="round" stroke-linejoin="round" stroke-width="1.5"/>
    <path id="Path_488" data-name="Path 488" d="M4.481.212a.791.791,0,0,1,1.077,0,.692.692,0,0,1,0,1.017L2.587,4.051h9.028a.724.724,0,1,1,0,1.446H2.587L5.557,8.319a.692.692,0,0,1,0,1.017.783.783,0,0,1-1.071,0L.223,5.285a.692.692,0,0,1,0-1.017L1.1,3.435Z" transform="translate(11.774) rotate(90)" fill="#ed1c24" stroke="rgba(0,0,0,0)" stroke-width="1"/>
  </g>
</svg>
