<?xml version="1.0" encoding="utf-8"?>
<!-- Generator: Adobe Illustrator 25.2.0, SVG Export Plug-In . SVG Version: 6.00 Build 0)  -->
<svg version="1.1" id="Ebene_1" xmlns="http://www.w3.org/2000/svg" xmlns:xlink="http://www.w3.org/1999/xlink" x="0px" y="0px"
	 viewBox="0 0 25.9 25.9" style="enable-background:new 0 0 25.9 25.9;" xml:space="preserve">
<style type="text/css">
	.st0{fill:#FFFFFF;}
</style>
<g>
	<g id="Gruppe_192" transform="translate(0.135 0.135)">
		<path id="Pfad_109" class="st0" d="M23.1,0.9H2.6c-1,0-1.7,0.8-1.7,1.7c0,0,0,0,0,0v20.5c0,1,0.8,1.7,1.7,1.7h20.5
			c1,0,1.7-0.8,1.7-1.7V2.6C24.8,1.6,24,0.9,23.1,0.9 M9.4,19H6.4v-8.8h2.9V19z M7.9,9L7.9,9C7,9.1,6.3,8.4,6.3,7.6S6.8,6,7.7,6
			c0.1,0,0.2,0,0.2,0c0.8-0.1,1.6,0.6,1.6,1.4S9,8.9,8.2,9C8.1,9,8,9,7.9,9 M19.9,19H17v-4.7c0-1.2-0.4-2-1.5-2
			c-0.7,0-1.3,0.4-1.5,1.1c-0.1,0.2-0.1,0.5-0.1,0.7V19H11c0,0,0-8,0-8.8h2.9v1.2c0.5-0.9,1.6-1.5,2.6-1.4c1.9,0,3.4,1.3,3.4,3.9
			L19.9,19z"/>
	</g>
</g>
</svg>
