<svg id="Group_293" data-name="Group 293" xmlns="http://www.w3.org/2000/svg" width="22.071" height="22.071" viewBox="0 0 22.071 22.071">
  <g id="Group_381" data-name="Group 381" transform="translate(5.24 2.773)">
    <g id="Group_380" data-name="Group 380">
      <path id="Path_338" data-name="Path 338" d="M137.767,64.572a.832.832,0,0,0-1.176,0l-9.979,9.953-3.6-3.91a.832.832,0,1,0-1.224,1.127l4.187,4.547a.831.831,0,0,0,.594.268h.018a.833.833,0,0,0,.587-.243l10.592-10.564A.832.832,0,0,0,137.767,64.572Z" transform="translate(-121.568 -64.327)" fill="#005a96"/>
    </g>
  </g>
  <g id="Group_383" data-name="Group 383">
    <g id="Group_382" data-name="Group 382">
      <path id="Path_339" data-name="Path 339" d="M21.239,10.2a.832.832,0,0,0-.832.832,9.372,9.372,0,1,1-9.372-9.372.832.832,0,1,0,0-1.664A11.036,11.036,0,1,0,22.071,11.036.832.832,0,0,0,21.239,10.2Z" fill="#005a96"/>
    </g>
  </g>
</svg>
