<svg id="Stift" xmlns="http://www.w3.org/2000/svg" width="15" height="14.999" viewBox="0 0 15 14.999">
  <path id="Path_323" data-name="Path 323" d="M28.277,15.574a2.066,2.066,0,0,0-2.919,0l-.731.735-7.777,7.773-.017.017s0,.008-.008.008-.021.025-.029.037,0,0,0,.008-.012.021-.021.033,0,.008-.008.012-.008.021-.013.033,0,0,0,.008l-1.726,5.189a.406.406,0,0,0,.1.421.415.415,0,0,0,.293.12.489.489,0,0,0,.132-.021l5.185-1.73s0,0,.008,0a.149.149,0,0,0,.037-.017.015.015,0,0,0,.008,0l.041-.025c.012-.008.025-.021.037-.029s.008,0,.008-.008.013-.008.017-.017L29.4,19.608a2.065,2.065,0,0,0,0-2.919ZM20.6,27.249l-2.873-2.873,7.191-7.191,2.873,2.873Zm-3.278-2.109,2.51,2.51L16.062,28.9Zm11.493-6.11-.438.442L25.5,16.6l.442-.442a1.238,1.238,0,0,1,1.75,0l1.123,1.123A1.242,1.242,0,0,1,28.814,19.03Z" transform="translate(-15 -14.971)" fill="#005a96"/>
</svg>
