<?xml version="1.0" encoding="utf-8"?>
<!-- Generator: Adobe Illustrator 25.2.0, SVG Export Plug-In . SVG Version: 6.00 Build 0)  -->
<svg version="1.1" id="Ebene_1" xmlns="http://www.w3.org/2000/svg" xmlns:xlink="http://www.w3.org/1999/xlink" x="0px" y="0px"
	 viewBox="0 0 17 17" style="enable-background:new 0 0 17 17;" xml:space="preserve">
<style type="text/css">
	.st0{fill:none;}
	.st1{fill:#FFFFFF;}
</style>
<path class="st0" d="M7,3C4.8,3,3,4.8,3,7c0,2.2,1.8,4,4,4s4-1.8,4-4C11,4.8,9.2,3,7,3z"/>
<path class="st1" d="M15.7,14.2l-3.8-3.8C12.6,9.5,13,8.3,13,7c0-3.3-2.7-6-6-6S1,3.7,1,7c0,3.3,2.7,6,6,6c1.3,0,2.5-0.4,3.5-1.1
	l3.8,3.8c0.2,0.2,0.5,0.3,0.7,0.3s0.5-0.1,0.7-0.3C16.1,15.3,16.1,14.6,15.7,14.2z M7,11c-2.2,0-4-1.8-4-4c0-2.2,1.8-4,4-4
	s4,1.8,4,4C11,9.2,9.2,11,7,11z"/>
</svg>
