<svg id="info_i" data-name="info i" xmlns="http://www.w3.org/2000/svg" width="21" height="20.209" viewBox="0 0 21 20.209">
  <g id="Ellipse_62" data-name="Ellipse 62" fill="none" stroke="#ed1c24" stroke-width="1.3">
    <ellipse cx="10.5" cy="10.104" rx="10.5" ry="10.104" stroke="none"/>
    <ellipse cx="10.5" cy="10.104" rx="9.85" ry="9.454" fill="none"/>
  </g>
  <path id="Pfad_519" data-name="Pfad 519" d="M12.189,16H7.773v-.624a3.4,3.4,0,0,1,.5-.216q.256-.088.56-.168V9.136L7.773,9.008V8.384a5.386,5.386,0,0,1,.6-.192q.36-.1.76-.168T9.917,7.9q.384-.056.672-.088h.544v7.184q.32.08.576.168a2.8,2.8,0,0,1,.48.216ZM8.557,5.376a1.084,1.084,0,0,1,.384-.88,1.5,1.5,0,0,1,.992-.32,1.5,1.5,0,0,1,.992.32,1.084,1.084,0,0,1,.384.88,1.066,1.066,0,0,1-.384.864,1.5,1.5,0,0,1-.992.32,1.5,1.5,0,0,1-.992-.32A1.066,1.066,0,0,1,8.557,5.376Z" transform="translate(0.553 0.552)" fill="#ed1c24"/>
</svg>
