<svg version="1.2" baseProfile="tiny-ps" xmlns="http://www.w3.org/2000/svg" viewBox="0 0 141 62" width="141" height="62">
	<title>Gruppe 2</title>
	<defs>
		<clipPath clipPathUnits="userSpaceOnUse" id="cp1">
			<path d="M-15 -14.12L156.19 -14.12L156.19 74.18L-15 74.18L-15 -14.12Z" />
		</clipPath>
	</defs>
	<style>
		tspan { white-space:pre }
		.shp0 { fill: #ffffff } 
		.shp1 { fill: #ed1c24 } 
	</style>
	<g id="Gruppe 2">
		<g id="Gruppe 1" clip-path="url(#cp1)">
			<path id="Pfad 1" class="shp0" d="M139.55 4.33C138.61 4.39 137.86 4.64 137.01 4.8C136.46 4.2 136.22 3.44 135.63 3.02C134.05 1.9 131.16 2.82 130.31 4.45C129.14 6.69 129.85 10.98 132.04 11.94C133.53 12.59 135.55 12.08 136.9 11.11L136.9 9.32L133.89 9.32C133.64 8.75 133.84 7.71 133.78 6.94C135.72 6.96 138.22 6.93 139.78 6.94L139.78 12.54C137.33 15.06 131.64 15.36 129.16 13.13C125.22 9.62 126.71 0.85 132.39 0.16C135.75 -0.25 139.16 0.96 139.55 4.33Z" />
			<path id="Pfad 2" fill-rule="evenodd" class="shp0" d="M11.57 6.82C12.8 7.63 14.09 8.28 14.11 10.28C14.12 12.09 12.85 13.92 11.11 14.32C8.8 14.85 5.42 14.17 2.56 14.44C2.63 9.8 2.4 4.84 2.67 0.4C6.87 0.58 11.97 -0.51 13.18 2.54C13.85 4.2 13.06 6.29 11.57 6.82ZM5.33 5.87C6.91 5.96 10.22 6.37 10.64 4.92C11.49 2.03 7.49 2.87 5.33 2.78L5.33 5.87ZM11.11 9.44C10.49 7.81 7.59 8.54 5.33 8.37L5.33 11.94C8.03 12.35 12.19 12.33 11.11 9.44Z" />
			<path id="Pfad 3" class="shp0" d="M35.13 0.4L35.13 2.78L27.85 2.78C27.59 3.57 27.81 4.88 27.74 5.87L34.67 5.87C34.61 6.64 34.8 7.68 34.55 8.25L27.74 8.25L27.74 11.94C30.05 12.22 32.86 11.98 35.36 12.06L35.36 14.44L24.97 14.44L24.97 0.4L35.13 0.4Z" />
			<path id="Pfad 4" fill-rule="evenodd" class="shp0" d="M53.27 0.4C55.02 5.1 56.8 9.77 58.7 14.32C57.89 14.6 56.58 14.36 55.58 14.44C55.28 13.28 54.81 12.3 54.42 11.23L49.11 11.23C48.58 12.15 48.26 13.29 47.95 14.44L44.95 14.44C46.74 9.74 48.37 4.88 50.38 0.4L53.27 0.4ZM49.92 8.85L53.5 8.85C52.94 7.08 52.34 5.36 51.65 3.73C51.12 5.48 50.41 7.06 49.92 8.85Z" />
			<path id="Pfad 5" fill-rule="evenodd" class="shp0" d="M76.6 8.13C76.51 8.55 77.05 8.74 77.29 8.97C78.72 10.28 79.83 12.53 80.99 14.32C79.92 14.35 78.64 14.71 77.87 14.44C77.2 14.2 76.25 12.17 75.79 11.47C75.02 10.28 74.38 9.36 73.6 8.73C73 8.63 72.36 8.57 71.63 8.61C71.36 10.32 71.59 12.54 71.52 14.44L68.74 14.44L68.74 0.4C71.68 0.62 76.85 -0.16 78.56 1.11C80.83 2.8 80.38 7.88 76.6 8.13ZM77.06 4.21C76.83 2.18 73.79 2.89 71.52 2.78L71.52 6.35C73.94 6.29 77.36 6.75 77.06 4.21Z" />
			<path id="Pfad 6" class="shp0" d="M93.81 0.4L93.81 14.44L91.04 14.44C91.12 9.8 90.89 4.84 91.15 0.4L93.81 0.4Z" />
			<path id="Pfad 7" class="shp0" d="M107.79 0.4C109.67 3.42 111.38 6.62 113.33 9.56L113.33 0.4L115.87 0.4L115.87 14.44L113.1 14.44C111.32 11.4 109.51 8.38 107.67 5.4L107.67 14.44L105.01 14.44L105.01 0.4L107.79 0.4Z" />
			<path id="Pfad 8" class="shp0" d="M0.48 19.32C47.1 19.4 94.04 19.16 140.48 19.44L140.48 21.82C140.12 22.26 139.21 22.06 138.51 22.06L0.36 22.06L0.36 19.68C0.35 19.51 0.34 19.34 0.48 19.32Z" />
			<path id="Pfad 9" class="shp1" d="M15.57 50.23C13.15 43.18 15.07 36.03 18.94 32.39C23.77 27.84 31.98 26.12 40.76 26.48L40.88 26.48C43.72 26.71 46.44 27.06 48.89 27.68L49.01 27.68C53.81 29.29 57.89 32.28 59.57 36.73C57.8 36.94 56.05 37.17 54.46 37.57L54.35 37.57C51.97 37.84 49.72 38.24 47.5 38.66C46.08 36.51 44.42 34.61 41.34 34.19L41.23 34.19C40.84 33.95 40.24 33.94 39.6 33.95L39.37 33.95C35.35 33.69 31.42 34.96 29.74 38.29C28.11 41.51 28.26 47.42 30.08 50.47C31.23 52.38 33.41 53.58 36 53.85L36.12 53.85C36.9 54.01 38.2 54.26 39.02 53.97L39.14 53.97C43.13 53.94 45.52 52.23 46.92 49.51L46.92 49.39C47.42 48.95 47.53 48.1 47.84 47.46C51.36 48.11 54.65 48.99 58.18 49.63L58.29 49.63C58.85 49.85 59.5 49.98 60.15 50.11C57.94 56.82 52.37 60.04 44.83 61.2L44.71 61.2C43.86 61.24 42.98 61.26 42.27 61.45L42.04 61.45C29.52 62.07 19.33 59.23 15.57 50.35L15.57 50.23Z" />
			<path id="Pfad 10" class="shp1" d="M70.78 28.62L70.78 28.26L82.73 28.26C84.29 34.36 85.45 40.87 87.36 46.6C87.85 46.58 87.8 46.01 87.94 45.64L87.94 45.52C89.16 42.66 90.14 39.56 91.19 36.53L91.19 36.41C91.92 34.81 92.47 33.02 93.05 31.26L93.05 31.14C93.48 30.42 93.72 29.52 93.97 28.62L93.97 28.5C94.1 28.48 94.15 28.37 94.21 28.26L106.26 28.26C106.77 29.42 107.08 30.77 107.66 31.86L107.66 31.98C108.07 33.31 108.47 34.65 109.05 35.81L109.05 35.93C110.35 39.5 111.4 43.33 112.99 46.6C113.89 45.41 114.01 43.76 114.38 42.28C115.53 37.65 116.63 32.84 117.74 28.26L129.69 28.26C126.54 39.11 123.52 50.1 120.41 60.98L107.89 60.98C106.14 56.35 104.63 51.48 102.79 46.96L102.79 46.84C102.01 44.61 101.35 42.25 100.35 40.25C99.66 40.26 99.73 41.04 99.54 41.56L99.54 41.68C97.72 46.32 96.08 51.13 94.44 55.94L94.44 56.06C93.65 57.53 93.28 59.43 92.58 60.98L80.06 60.98C79.1 57.86 78.34 54.53 77.28 51.51L77.28 51.39C75.32 44.31 73.38 37.21 71.25 30.3L71.25 30.18C71.13 29.66 71.07 29.08 70.78 28.74L70.78 28.62Z" />
		</g>
	</g>
</svg>