<svg id="Group_495" data-name="Group 495" xmlns="http://www.w3.org/2000/svg" width="78.804" height="48.876" viewBox="0 0 78.804 48.876">
  <path id="Path_422" data-name="Path 422" d="M41.579,141.353H52.167a1.183,1.183,0,0,0,1.016-.585,1.146,1.146,0,0,0-.031-1.154,14.141,14.141,0,0,1,.031-15.3l1.677,1.57a12.693,12.693,0,1,0,22.205-.539h0a1.166,1.166,0,0,0-1.585-.4,1.125,1.125,0,0,0-.415,1.554A10.124,10.124,0,0,1,76.5,131.69a10.388,10.388,0,0,1-20.774,0,10.079,10.079,0,0,1,.893-4.155l3.062,2.878a5.894,5.894,0,0,0-.123,1.277,6.556,6.556,0,1,0,6.555-6.494,6.283,6.283,0,0,0-1.616.2l-3.062-2.878a10.446,10.446,0,0,1,11.418,1.354,1.142,1.142,0,0,0,.754.277,1.173,1.173,0,0,0,.877-.4,1.146,1.146,0,0,0-.123-1.616,12.782,12.782,0,0,0-14.665-1.262l-1.416-1.339a14.5,14.5,0,0,1,7.125-1.862,14.257,14.257,0,0,1,2.293.185,1.212,1.212,0,0,0,.939-.262l3.647-3.124a4.645,4.645,0,0,0,1.293-1.8c.969-2.478,1.016-7.14-.831-9.233-5.094-5.74-12.634-8.571-21.251-7.971a2.829,2.829,0,0,0-2.247,4.278l.508.846H48.243a1.139,1.139,0,1,0,0,2.277h2.816a8.129,8.129,0,0,1,.739,3.709,12.871,12.871,0,0,0-18.9,2.17h-8.31a2.852,2.852,0,0,1-1.8-.631l-8.448-6.709a1.114,1.114,0,0,0-.723-.246H6.663a3.465,3.465,0,0,0-3.478,3.432,3.415,3.415,0,0,0,1.447,2.785l6.679,4.755a1.172,1.172,0,0,0,1.616-.262,1.133,1.133,0,0,0-.262-1.585l-6.679-4.755a1.153,1.153,0,0,1-.492-.939,1.166,1.166,0,0,1,1.17-1.154h6.494l8.125,6.448a5.294,5.294,0,0,0,3.247,1.123H33.27l7.479,2.831,4.109,1.554a12.492,12.492,0,0,1-7.494,2.508H34.824a7.178,7.178,0,0,0-6.248,3.662l-1.908-1.354h0L11.587,109.5a1.17,1.17,0,0,0-1.616.262,1.133,1.133,0,0,0,.262,1.585l13.68,9.71-2.493,1.508a12.838,12.838,0,0,0-8.741-3.447,12.581,12.581,0,1,0,12.311,9.433l2.739-1.662v8.556a5.947,5.947,0,0,0,5.986,5.909h5.555M70.34,131.69a4.257,4.257,0,0,1-8.417.846l1.754,1.647a3.533,3.533,0,0,0,4.955-.123,3.4,3.4,0,0,0-.123-4.878l-1.754-1.647A4.22,4.22,0,0,1,70.34,131.69Zm1-26.16a9.471,9.471,0,0,1-.015,6.432,3.256,3.256,0,0,1,.015-6.432Zm-28.068.154a10.438,10.438,0,0,1,7.91,3.57,9.6,9.6,0,0,1-4.078,4.555l-9.633-3.632-2.2-.831a10.564,10.564,0,0,1,8-3.662ZM27.807,123.826c-.015.108-.031.231-.046.354L17.5,130.412h-.015l-3.447,2.108a1.2,1.2,0,0,1-1.631-.4,1.139,1.139,0,0,1-.123-.923,1.232,1.232,0,0,1,.539-.708l3.616-2.2h.015l5.4-3.262h0l4.109-2.493Zm-17.374,9.479a3.546,3.546,0,0,0,4.817,1.185l1.154-.708a4.237,4.237,0,1,1-3.709-6.294,3.992,3.992,0,0,1,.616.046l-1.693,1.031a3.49,3.49,0,0,0-1.57,2.047,3.445,3.445,0,0,0,.385,2.693ZM23.1,131.69a10.388,10.388,0,1,1-10.387-10.264,10.534,10.534,0,0,1,6.694,2.416L15.85,126a6.476,6.476,0,1,0,3.416,6.048l3.662-2.231a10.921,10.921,0,0,1,.169,1.877Zm27.114,7.386H33.7a3.658,3.658,0,0,1-3.678-3.632V124.949a4.765,4.765,0,0,1,4.016-4.678c2.062-.339,6.679.877,11.818-2.77,3.632-2.585,6.94-4.216,7.971-9.064a10.379,10.379,0,0,0-.354-5.571h.492a1.139,1.139,0,1,0,0-2.277h-1.6l-1.216-2.016a.545.545,0,0,1,.431-.831c7.186-.508,13.542,1.57,18.1,5.894a5.515,5.515,0,0,0-.169,10.141l-2.047,1.754a16.4,16.4,0,0,0-2.124-.139,16.525,16.525,0,0,0-15.127,23.683Zm6.078-18.22,2.431,2.293h0l8.187,7.694a1.184,1.184,0,0,1,.369.816,1.171,1.171,0,0,1-.323.846,1.225,1.225,0,0,1-.862.369,1.139,1.139,0,0,1-.816-.323l-8.187-7.694h0l-2.508-2.37A11.444,11.444,0,0,1,56.291,120.856Z" transform="translate(0 -95.386)" fill="#005a96"/>
  <path id="Path_423" data-name="Path 423" d="M461.708,260.9a12.708,12.708,0,0,1,5.832,7.448l-2.339.231a9.962,9.962,0,0,0-5.2-6Z" transform="translate(-389.213 -235.43)" fill="#005a96"/>
</svg>
