<svg xmlns="http://www.w3.org/2000/svg" width="78.36" height="70.002" viewBox="0 0 78.36 70.002">
  <g id="Group_489" data-name="Group 489" transform="translate(-10 -900.998)">
    <g id="Subtraction_1" data-name="Subtraction 1" transform="translate(48.548 900.998)" fill="#fff">
      <path d="M 18.48377990722656 69.50196075439453 L 0.5 69.50196075439453 L 0.5 0.5001276135444641 L 18.48377990722656 0.5001276135444641 C 29.96878051757813 0.5001276135444641 39.3125 15.97719764709473 39.3125 35.0010986328125 C 39.3125 54.02493667602539 29.96878051757813 69.50196075439453 18.48377990722656 69.50196075439453 Z" stroke="none"/>
      <path d="M 18.48377990722656 69.00196075439453 C 21.15567970275879 69.00196075439453 23.75724983215332 68.13653564453125 26.21619987487793 66.42972564697266 C 28.64075088500977 64.74681091308594 30.82625007629395 62.3243293762207 32.71197891235352 59.22959899902344 C 34.61935043334961 56.09935760498047 36.1186408996582 52.44729614257813 37.1682014465332 48.3748779296875 C 38.25928115844727 44.14139938354492 38.8125 39.64180755615234 38.8125 35.0010986328125 C 38.8125 30.36038780212402 38.25928115844727 25.86079788208008 37.1682014465332 21.62729835510254 C 36.1186408996582 17.55486679077148 34.61935043334961 13.90279769897461 32.71197891235352 10.77254772186279 C 30.82624053955078 7.677787780761719 28.64075088500977 5.255297660827637 26.21619987487793 3.572367668151855 C 23.75724029541016 1.865557551383972 21.15567970275879 1.000127553939819 18.48377990722656 1.000127553939819 L 1 1.000127553939819 L 1 69.00196075439453 L 18.48377990722656 69.00196075439453 M 18.48377990722656 70.00196075439453 L 0 70.00196075439453 L 0 0.000127597653772682 L 18.48377990722656 0.000127597653772682 C 30.26457023620605 0.000127597653772682 39.8125 15.67199802398682 39.8125 35.0010986328125 C 39.8125 54.33019638061523 30.26457023620605 70.00196075439453 18.48377990722656 70.00196075439453 Z" stroke="none" fill="#bdbcbc"/>
    </g>
    <path id="Path_163" data-name="Path 163" d="M18,0" transform="translate(52.232 970.499)" fill="none" stroke="#bdbcbc" stroke-width="1"/>
    <g id="Ellipse_57" data-name="Ellipse 57" transform="translate(33.527 900.999)" fill="#fff" stroke="#bdbcbc" stroke-width="1">
      <ellipse cx="15" cy="35" rx="15" ry="35" stroke="none"/>
      <ellipse cx="15" cy="35" rx="14.5" ry="34.5" fill="none"/>
    </g>
    <g id="Ellipse_59" data-name="Ellipse 59" transform="translate(36.548 905.999)" fill="#fff" stroke="#bdbcbc" stroke-width="1">
      <ellipse cx="12" cy="30" rx="12" ry="30" stroke="none"/>
      <ellipse cx="12" cy="30" rx="11.5" ry="29.5" fill="none"/>
    </g>
    <path id="Path_313" data-name="Path 313" d="M0,116Z" transform="translate(10 850)" fill="#fff"/>
  </g>
</svg>
