<?xml version="1.0" encoding="utf-8"?>
<!-- Generator: Adobe Illustrator 25.2.0, SVG Export Plug-In . SVG Version: 6.00 Build 0)  -->
<svg version="1.1" id="Ebene_1" xmlns="http://www.w3.org/2000/svg" xmlns:xlink="http://www.w3.org/1999/xlink" x="0px" y="0px"
	 viewBox="0 0 26 26" style="enable-background:new 0 0 26 26;" xml:space="preserve">
<style type="text/css">
	.st0{fill:#85A0C8;}
</style>
<g id="Gruppe_326" transform="translate(-0.003)">
	<path id="Pfad_304" class="st0" d="M23.7,2.3c-0.8-0.9-2-1.3-3.2-1.3h-15C4.3,1,3.2,1.5,2.3,2.3C1.5,3.2,1,4.3,1,5.5v15
		c0,1.2,0.5,2.3,1.3,3.2c0.8,0.9,2,1.3,3.2,1.3h15c2.5,0,4.5-2,4.5-4.5v-15C25,4.3,24.5,3.2,23.7,2.3z M7.8,17H4.9
		c-0.2,0-0.3-0.1-0.4-0.2c-0.1-0.1-0.1-0.3,0-0.4L7.6,11v0l-2-3.4c-0.1-0.1-0.1-0.3,0-0.5C5.7,7,5.9,6.9,6.1,7h2.9
		c0.3,0,0.7,0.2,0.8,0.5c1.3,2.3,2,3.5,2,3.5l-3.1,5.5C8.5,16.8,8.2,17,7.8,17z M21.5,3.6l-6.4,11.3v0l4.1,7.4
		c0.1,0.1,0.1,0.3,0,0.4c-0.1,0.1-0.2,0.2-0.4,0.2h-2.9c-0.4,0-0.7-0.2-0.8-0.5c-2.7-5-4.1-7.5-4.1-7.5l6.4-11.4
		C17.5,3.2,17.8,3,18.2,3h2.9c0.2,0,0.3,0.1,0.4,0.2C21.5,3.3,21.5,3.5,21.5,3.6z"/>
</g>
</svg>
